<svg xmlns="http://www.w3.org/2000/svg" viewBox="0 0 369.93 217">
  <defs>
    <style>
      .cls-1 {
        isolation: isolate;
      }

      .cls-2 {
        opacity: 0.22;
      }

      .cls-3 {
        fill: #eafcfc;
      }

      .cls-17, .cls-21, .cls-24, .cls-25, .cls-4 {
        mix-blend-mode: multiply;
      }

      .cls-4 {
        opacity: 0.1;
      }

      .cls-5 {
        fill: #86b1f2;
      }

      .cls-6 {
        fill: #355389;
      }

      .cls-7 {
        fill: #3c8f7c;
      }

      .cls-8 {
        fill: #50bfa5;
      }

      .cls-9 {
        fill: #367f6c;
      }

      .cls-10 {
        fill: #29446d;
      }

      .cls-11 {
        fill: #184655;
      }

      .cls-12 {
        fill: #96d9c9;
      }

      .cls-13 {
        fill: #327765;
      }

      .cls-14, .cls-19, .cls-23, .cls-33 {
        fill: #fff;
      }

      .cls-14 {
        opacity: 0.8;
      }

      .cls-15 {
        fill: #fcf5eb;
      }

      .cls-16, .cls-17, .cls-21 {
        fill: #fae0b2;
      }

      .cls-18, .cls-25 {
        fill: #e25a44;
      }

      .cls-19, .cls-23 {
        mix-blend-mode: overlay;
      }

      .cls-19, .cls-21 {
        opacity: 0.5;
      }

      .cls-20 {
        fill: #accbf9;
      }

      .cls-22 {
        fill: #f47458;
      }

      .cls-23 {
        opacity: 0.2;
      }

      .cls-24, .cls-30 {
        fill: #f7cc7f;
      }

      .cls-24, .cls-25 {
        opacity: 0.3;
      }

      .cls-26 {
        fill: #466eb6;
      }

      .cls-27 {
        fill: #f7a491;
      }

      .cls-28 {
        fill: #b75742;
      }

      .cls-29 {
        fill: #f48c7f;
      }

      .cls-31 {
        fill: #07345a;
      }

      .cls-32 {
        fill: #9bc1f9;
      }
    </style>
  </defs>
  <g class="cls-1">
    <g id="Layer_2" data-name="Layer 2">
      <g id="Layer_1-2" data-name="Layer 1">
        <g class="cls-2">
          <g>
            <path class="cls-3" d="M225.76,1.64s-87.87,13.46-79.69,37.6-43.73-8.58-64.44.12c-14.75,6.2-8.85,25.06-16,32.66C49.28,89.45,32.55,67.5,11.73,80.67S14.86,214.12,23.34,214.1l305.76,2.24,3.85.13s23.54-35.37,2.23-56-6.68-30.09-4.09-38.08c3-9.16,13.62-35.33-16.72-46.78-22-8.3-22.58-37.33-21.69-42.6,0,0,8.51-41.65-66.92-31.34Z"/>
            <g class="cls-4">
              <path class="cls-5" d="M13.51,163.45h9.62V143.63h9.25v8.83H40V132.13H52.57v18.59l3.75.12V132.09H60.7v-8h2.62v-5.36H73.57v5.36H76.2v8h4.37v10.15l2,.12.61-30.08H96.7v16l4.75.12v-25h1.62V98.11h14.25v5.28H119V137.1h3V126.59h2.5v-5.14h3.62v-15h5.25v15H137v5.14h2.5v17.78h1.75l1.37,0v-20.6l37,.34v5.18h3.13v-4.51h7.78V94.65h7.13v4.29h3.25v8.8h11.25v6.08h9.55V124.1l15.07-.33v20.6l1.38,0h1.75V126.6h2.5v-5.13H246v-15h5.25v15h3.62v5.13h2.51v10.52h3V103.41H262V98.13h14.26v5.28h1.62v25l4.75-.12v-16h13.51l.6,30.08,2-.12V132.11h4.38v-8h2.63v-5.37H316v5.37h2.63v8H323v18.74l3.32-.1c-3.57,5.16-5.45,11.94,8.85,22.6,18.16,13.54,3.76,35.3-.91,41.45H48.49l-25.15-.15c-2.46,0-6.23-7.8-9.83-19.14Z"/>
              <path class="cls-5" d="M331.09,144.05c-.79,1.86-2.67,3.82-4.33,6.08v-18h8.31C334.32,137.07,332.18,141.45,331.09,144.05Z"/>
            </g>
            <g>
              <rect class="cls-6" x="67.9" y="182.04" width="0.86" height="14.3" transform="translate(136.66 378.37) rotate(180)"/>
              <polygon class="cls-7" points="68.11 156.53 72.33 185.41 63.89 185.41 68.11 156.53"/>
              <polygon class="cls-8" points="72.06 183.57 64.49 181.3 64.6 180.51 71.93 182.72 72.06 183.57"/>
              <polygon class="cls-8" points="70.72 174.45 65.71 172.94 65.82 172.16 70.6 173.6 70.72 174.45"/>
            </g>
            <g>
              <rect class="cls-6" x="75.28" y="183.05" width="0.73" height="7.68" transform="translate(151.29 373.79) rotate(180)"/>
              <polygon class="cls-7" points="75.64 168.15 78.02 186.43 73.27 186.43 75.64 168.15"/>
              <polygon class="cls-8" points="77.16 179.8 73.77 182.57 73.9 181.56 77.05 178.99 77.16 179.8"/>
              <polygon class="cls-8" points="76.64 175.79 74.56 176.47 74.66 175.72 76.55 175.1 76.64 175.79"/>
            </g>
            <g>
              <path class="cls-7" d="M172,189.54a5.89,5.89,0,0,1-.09-1c0-3.88,3.82-7,8.53-7s8.54,3.16,8.54,7a5.89,5.89,0,0,1-.09,1Z"/>
              <path class="cls-8" d="M162.3,187.81a11.52,11.52,0,0,1-.09-1.45c0-5.48,3.82-9.92,8.54-9.92s8.53,4.44,8.53,9.92a11.52,11.52,0,0,1-.09,1.45Z"/>
              <path class="cls-8" d="M165.43,193.89a5.8,5.8,0,0,0,.09-1c0-3.88-3.82-7-8.54-7s-8.53,3.15-8.53,7a5.8,5.8,0,0,0,.09,1Z"/>
              <path class="cls-9" d="M179.09,193.89a9.79,9.79,0,0,0,.11-1.45c0-5.48-4.84-9.92-10.82-9.92s-10.82,4.44-10.82,9.92a8.6,8.6,0,0,0,.12,1.45Z"/>
              <path class="cls-8" d="M170.78,182.52a9.46,9.46,0,0,1,7.41,3.62,13.08,13.08,0,0,1,2.84-.31c5.3,0,9.6,3.15,9.6,7,0,.35-2.82,7.68-2.89,8l-26.46-7a10,10,0,0,1,9.5-11.37Z"/>
            </g>
            <path class="cls-7" d="M283.38,175c13.6-1.11,39.73,9.1,60.47,19a41.89,41.89,0,0,1-5.41,14.6l-9.19-.14h7.85c-4.64-.12-79.22-8.72-130-14C234.59,186.59,262.13,176.68,283.38,175Z"/>
            <g>
              <path class="cls-10" d="M104.63,155.32a.32.32,0,0,0-.54-.21c-.18.21-.17.07-.35.53a14.84,14.84,0,0,1-2.15,3.69,16,16,0,0,1-5.23,4.26,13.77,13.77,0,0,0,1.37-5.25,4,4,0,0,0-.29-1.93.24.24,0,0,0-.43.05c-.16.93.08,1.63-.24,3.29-.75,4-3.73,8.16-6.6,11.1A53.74,53.74,0,0,0,90,155.19a24.48,24.48,0,0,0-.66-2.41.16.16,0,0,0-.3.08c0,.26.52,3.72.54,4a57.91,57.91,0,0,1,0,11.92A23.3,23.3,0,0,1,85.18,159c-.21-1-.27-2.1-.55-3.12,0-.14-.29-.16-.32,0-.3,1.52.3,4.22.73,5.69a23.06,23.06,0,0,0,4.21,8c.07.09-3.09,23.33-3,23.62.14.5,1,.84,1.19,0,.06-.36,1.79-14.48,2.58-21,.29-.15.48-.43,1.24-1.24a30.87,30.87,0,0,0,4.67-6.45c.7,0,5.75-2.37,8.26-7.69.07-.15.39-.87.44-1A1.34,1.34,0,0,0,104.63,155.32Z"/>
              <path class="cls-11" d="M88.42,147.79q.09-1.08.09-2.19c0-8.3-3.71-15-8.27-15S72,137.3,72,145.6c0,.74,0,1.47.08,2.19Z"/>
              <path class="cls-7" d="M97.78,144.1q.09-1.51.09-3.09c0-11.71-3.71-21.2-8.27-21.2s-8.27,9.49-8.27,21.2c0,1.05,0,2.08.08,3.09Z"/>
              <path class="cls-7" d="M94.75,157.08q-.09-1.07-.09-2.19c0-8.3,3.71-15,8.27-15s8.27,6.73,8.27,15c0,.75,0,1.48-.08,2.19Z"/>
              <path class="cls-11" d="M81.52,157.08q-.12-1.52-.12-3.09c0-11.7,4.7-21.19,10.49-21.19s10.48,9.49,10.48,21.19c0,1,0,2.08-.11,3.09Z"/>
              <path class="cls-7" d="M89.57,132.8c-2.9,0-5.48,3-7.19,7.73a6.16,6.16,0,0,0-2.75-.67c-5.14,0-9.3,6.73-9.3,15,0,.75,0,1.48.1,2.19H98.77c.06-1,.1-2,.1-3.09C98.87,142.29,94.7,132.8,89.57,132.8Z"/>
            </g>
            <path class="cls-12" d="M79.76,200H342.37A56.27,56.27,0,0,1,333,216.47l-3.85-.1-249.34-.18Z"/>
            <path class="cls-7" d="M114.63,179.3c21.25,1.74,48.79,11.65,76.24,19.45-50.75,5.27-125.33,13.87-130,14h7.85l-11.08.18-30.22-.41C41.56,203.47,93.38,177.57,114.63,179.3Z"/>
            <g>
              <g>
                <path class="cls-10" d="M22.82,199.1A85.83,85.83,0,0,1,19.58,190a59.08,59.08,0,0,1-1.89-19.86c0-.44-.74-.56-.8-.11a37.74,37.74,0,0,0-.29,4.75,58.67,58.67,0,0,0,.52,8,5.81,5.81,0,0,1-5.25-1.53c-2.58-2.22-3.5-5.18-3.9-8.46,0-.34,0-.66-.34-.85a.2.2,0,0,0-.39,0c-.41.4-.21,1.2-.15,1.72.85,7,5.3,10.38,8.89,10.35a6,6,0,0,0,1.3-.14c.26,1.67.59,3.33,1,5a69.54,69.54,0,0,0,3.06,9.14c4.09,10.23,5.39,15.45,6.55,18.41a.49.49,0,0,0,.94-.25C28.77,216,25.58,206,22.82,199.1Z"/>
                <path class="cls-10" d="M39.21,172.2c0-.22-.18-.36-.23-.57s-.53-.3-.58,0-.13.28-.17.45a58.66,58.66,0,0,1-.61,8.62,20.59,20.59,0,0,1-.89,3.82A13.26,13.26,0,0,1,33,190a78.51,78.51,0,0,0-.59-8.53q-.31-2.55-.81-5.07c-.16-.81-.34-1.63-.52-2.44a9.09,9.09,0,0,0-.81-2.44.28.28,0,0,0-.51.13,9.51,9.51,0,0,0,.33,2.19c.16.73.31,1.47.46,2.2A79.31,79.31,0,0,1,32,191.83a32.24,32.24,0,0,1-4.43-7.1,31.84,31.84,0,0,1-2.67-9.42c-.1-.91-.17-1.83-.19-2.74l0-1.42c0-.25-.1-1-.53-.77s-.36.64-.4,1,0,.84,0,1.26c0,.81.06,1.62.13,2.43a33.16,33.16,0,0,0,6.4,16.33A16.68,16.68,0,0,0,32,193.55c-.15,9.34-1.6,21.14-1.63,22.08a4.52,4.52,0,0,0,.08.63c.07.42.65.32.77,0,.22-.62.2-.86.54-4.27.6-6.07,1.27-20,1.27-20.56a13.25,13.25,0,0,0,4.52-5.92,16.4,16.4,0,0,0,1-3.76A43.12,43.12,0,0,0,39.21,172.2Z"/>
              </g>
              <path class="cls-11" d="M24.87,164.58a17.41,17.41,0,0,0,.12-2.06c0-7.81-5.09-14.14-11.37-14.14S2.25,154.71,2.25,162.52a17.41,17.41,0,0,0,.12,2.06Z"/>
              <path class="cls-7" d="M37.74,161.11q.12-1.43.12-2.91c0-11-5.09-19.95-11.37-19.95s-11.37,8.93-11.37,19.95q0,1.49.12,2.91Z"/>
              <path class="cls-11" d="M15.38,173.33a27.78,27.78,0,0,1-.15-2.91c0-11,6.45-19.94,14.41-19.94s14.42,8.93,14.42,19.94a27.78,27.78,0,0,1-.15,2.91Z"/>
              <path class="cls-7" d="M26.45,150.48c-4,0-7.53,2.83-9.88,7.27a11.57,11.57,0,0,0-3.78-.63C5.73,157.12,0,163.46,0,171.27a15.49,15.49,0,0,0,.14,2.06h39c.08-1,.13-1.92.13-2.91C39.24,159.41,33.51,150.48,26.45,150.48Z"/>
            </g>
            <g>
              <path class="cls-13" d="M44.05,191.29,42.2,189a3.62,3.62,0,0,1,.61-5.26h0A10.21,10.21,0,0,1,56.59,186l2.47,3.13A4.84,4.84,0,0,0,63.44,191a4.26,4.26,0,0,1,3.85,1.62l1.3,1.65A7.28,7.28,0,0,1,70,200.41a4.42,4.42,0,0,0,.88,3.74l1.84,2.33a5.51,5.51,0,0,1-.93,8l-1.45,1.05A6.16,6.16,0,0,1,62,214.16h0c-2.16-3.57-4.66-4.72-6.68-5a11.37,11.37,0,0,1-7.6-4.21l-.26-.33a10.27,10.27,0,0,1-2-8.57A5.61,5.61,0,0,0,44.05,191.29Z"/>
              <path class="cls-8" d="M85.25,216.13s-9.57-12.12-15.6-14-1.31,4.54-1.31,4.54-9.71-10.16-13.63-9.15c-3.6.92,0,7.82,0,7.82s-4.05-3.82-9-3.82,3.79,14.31,3.79,14.31Z"/>
              <path class="cls-12" d="M54.71,216.06s-7.79-18.69-15.89-16.76c-6.56,1.57-2.71,8.67-3.11,8.28s-1.86-2.78-7.56-2.78.1,6.76.1,6.76-10.49-2.68-11.44,1.11c-.79,3.15,3.62,3.39,3.62,3.39Z"/>
            </g>
            <path class="cls-14" d="M221.3,78.29a6,6,0,0,1,5.85-4.45,6.27,6.27,0,0,1,1.52.19,8.88,8.88,0,0,1,8-4.87,9.16,9.16,0,0,1,2.64.38,11.14,11.14,0,0,1,19.59,1.82,7.71,7.71,0,0,1,3.63-.9A7.31,7.31,0,0,1,270,77.6c0,.23,0,.46,0,.69Z"/>
            <path class="cls-14" d="M169.63,100.33a2.44,2.44,0,0,0-2.41-1.83,2.59,2.59,0,0,0-.63.07,3.66,3.66,0,0,0-3.3-2,3.81,3.81,0,0,0-1.08.15,4.55,4.55,0,0,0-3.85-2.07,4.5,4.5,0,0,0-4.23,2.82,3.23,3.23,0,0,0-1.5-.37,3,3,0,0,0-3.08,2.94,2.81,2.81,0,0,0,0,.29Z"/>
            <path class="cls-14" d="M241.09,104a3.2,3.2,0,0,0-3.15-2.39,3.59,3.59,0,0,0-.81.1,4.78,4.78,0,0,0-4.3-2.61,5.08,5.08,0,0,0-1.42.2,6,6,0,0,0-10.52,1,4.12,4.12,0,0,0-1.95-.49,3.93,3.93,0,0,0-4,3.84c0,.12,0,.25,0,.37Z"/>
            <rect class="cls-15" x="206.72" y="152.03" width="4.19" height="49.47" transform="translate(417.63 353.54) rotate(180)"/>
            <rect class="cls-16" x="181.61" y="132.22" width="29.44" height="16.23"/>
            <rect class="cls-17" x="207.58" y="132.22" width="3.47" height="16.23"/>
            <rect class="cls-11" x="180.26" y="131.44" width="31.44" height="1.56"/>
            <rect class="cls-5" x="181.78" y="136.17" width="8.57" height="6.72" transform="translate(325.59 -46.54) rotate(90)"/>
            <rect class="cls-5" x="190.18" y="136.16" width="8.57" height="6.72" transform="translate(333.99 -54.94) rotate(90)"/>
            <rect class="cls-5" x="198.42" y="136.16" width="8.57" height="6.72" transform="translate(342.22 -63.17) rotate(90)"/>
            <rect class="cls-16" x="261.55" y="132.22" width="29.44" height="16.23" transform="translate(552.54 280.67) rotate(180)"/>
            <rect class="cls-17" x="261.55" y="132.22" width="3.47" height="16.23" transform="translate(526.57 280.67) rotate(180)"/>
            <rect class="cls-16" x="173.9" y="148.69" width="37.22" height="54.11"/>
            <rect class="cls-5" x="179.41" y="149.15" width="8.57" height="14.31" transform="translate(340 -27.39) rotate(90)"/>
            <rect class="cls-5" x="179.41" y="159.09" width="8.57" height="14.31" transform="translate(349.94 -17.45) rotate(90)"/>
            <rect class="cls-5" x="179.41" y="169.03" width="8.57" height="14.31" transform="translate(359.88 -7.51) rotate(90)"/>
            <rect class="cls-5" x="179.41" y="178.97" width="8.57" height="14.31" transform="translate(369.82 2.43) rotate(90)"/>
            <rect class="cls-5" x="179.41" y="188.91" width="8.57" height="14.31" transform="translate(379.76 12.36) rotate(90)"/>
            <rect class="cls-5" x="195.27" y="149.15" width="8.57" height="14.31" transform="translate(355.86 -43.25) rotate(90)"/>
            <rect class="cls-5" x="195.27" y="159.09" width="8.57" height="14.31" transform="translate(365.8 -33.31) rotate(90)"/>
            <rect class="cls-5" x="195.27" y="169.03" width="8.57" height="14.31" transform="translate(375.74 -23.38) rotate(90)"/>
            <rect class="cls-5" x="195.27" y="178.97" width="8.57" height="14.31" transform="translate(385.68 -13.44) rotate(90)"/>
            <rect class="cls-5" x="195.27" y="188.91" width="8.57" height="14.31" transform="translate(395.62 -3.5) rotate(90)"/>
            <rect class="cls-16" x="261.55" y="148.69" width="37.22" height="54.11" transform="translate(560.31 351.49) rotate(180)"/>
            <rect class="cls-11" x="261.55" y="201.51" width="37.66" height="1.29" transform="translate(560.75 404.31) rotate(180)"/>
            <rect class="cls-11" x="173.58" y="201.51" width="37.66" height="1.29" transform="translate(384.81 404.31) rotate(180)"/>
            <rect class="cls-17" x="261.55" y="148.69" width="3.47" height="54.11" transform="translate(526.57 351.49) rotate(180)"/>
            <rect class="cls-11" x="260.93" y="131.44" width="31.41" height="1.56" transform="translate(553.27 264.45) rotate(180)"/>
            <rect class="cls-16" x="210.92" y="136.82" width="50.63" height="11.24" transform="translate(472.47 284.89) rotate(180)"/>
            <rect class="cls-16" x="210.92" y="149.64" width="50.63" height="53.16" transform="translate(472.47 352.44) rotate(180)"/>
            <rect class="cls-5" x="284.69" y="149.15" width="8.57" height="14.31" transform="translate(445.28 -132.67) rotate(90)"/>
            <rect class="cls-5" x="284.69" y="159.09" width="8.57" height="14.31" transform="translate(455.21 -122.73) rotate(90)"/>
            <rect class="cls-5" x="284.69" y="169.03" width="8.57" height="14.31" transform="translate(465.15 -112.79) rotate(90)"/>
            <rect class="cls-5" x="284.69" y="178.97" width="8.57" height="14.31" transform="translate(475.09 -102.85) rotate(90)"/>
            <rect class="cls-5" x="284.69" y="188.91" width="8.57" height="14.31" transform="translate(485.03 -92.91) rotate(90)"/>
            <rect class="cls-5" x="268.83" y="149.15" width="8.57" height="14.31" transform="translate(429.41 -116.8) rotate(90)"/>
            <rect class="cls-5" x="282.25" y="136.17" width="8.57" height="6.72" transform="translate(426.06 -147.01) rotate(90)"/>
            <rect class="cls-5" x="273.85" y="136.17" width="8.57" height="6.72" transform="translate(417.66 -138.61) rotate(90)"/>
            <rect class="cls-5" x="265.62" y="136.16" width="8.57" height="6.72" transform="translate(409.43 -130.37) rotate(90)"/>
            <rect class="cls-5" x="268.83" y="159.09" width="8.57" height="14.31" transform="translate(439.35 -106.87) rotate(90)"/>
            <rect class="cls-5" x="268.83" y="169.03" width="8.57" height="14.31" transform="translate(449.29 -96.93) rotate(90)"/>
            <rect class="cls-5" x="268.83" y="178.97" width="8.57" height="14.31" transform="translate(459.23 -86.99) rotate(90)"/>
            <rect class="cls-5" x="268.83" y="188.91" width="8.57" height="14.31" transform="translate(469.17 -77.05) rotate(90)"/>
            <rect class="cls-18" x="228.62" y="189.47" width="14.53" height="13.46" transform="translate(471.77 392.4) rotate(180)"/>
            <rect class="cls-11" x="282.99" y="143.5" width="7.09" height="0.44" transform="translate(573.07 287.44) rotate(180)"/>
            <rect class="cls-11" x="274.59" y="143.5" width="7.09" height="0.44" transform="translate(556.26 287.44) rotate(180)"/>
            <rect class="cls-11" x="266.35" y="143.5" width="7.09" height="0.44" transform="translate(539.8 287.44) rotate(180)"/>
            <rect class="cls-11" x="199.24" y="143.5" width="7.09" height="0.44" transform="translate(405.57 287.44) rotate(180)"/>
            <rect class="cls-11" x="190.84" y="143.5" width="7.09" height="0.44" transform="translate(388.76 287.44) rotate(180)"/>
            <rect class="cls-11" x="182.6" y="143.5" width="7.09" height="0.44" transform="translate(372.3 287.44) rotate(180)"/>
            <polygon class="cls-19" points="289.27 199.9 297.49 199.9 287.98 152.02 279.76 152.02 289.27 199.9"/>
            <rect class="cls-16" x="296.12" y="152.02" width="2.64" height="48.71" transform="translate(594.89 352.75) rotate(180)"/>
            <polygon class="cls-19" points="278.7 199.9 283.28 199.9 273.77 152.02 269.19 152.02 278.7 199.9"/>
            <rect class="cls-11" x="265.78" y="160.14" width="14.66" height="0.44" transform="translate(546.22 320.73) rotate(180)"/>
            <rect class="cls-11" x="281.64" y="170.08" width="14.66" height="0.44" transform="translate(577.94 340.61) rotate(180)"/>
            <rect class="cls-11" x="265.78" y="170.08" width="14.66" height="0.44" transform="translate(546.22 340.61) rotate(180)"/>
            <rect class="cls-11" x="281.64" y="180.02" width="14.66" height="0.44" transform="translate(577.94 360.49) rotate(180)"/>
            <rect class="cls-11" x="265.78" y="180.02" width="14.66" height="0.44" transform="translate(546.22 360.49) rotate(180)"/>
            <rect class="cls-11" x="281.64" y="189.96" width="14.66" height="0.44" transform="translate(577.94 380.36) rotate(180)"/>
            <rect class="cls-11" x="265.78" y="189.96" width="14.66" height="0.44" transform="translate(546.22 380.36) rotate(180)"/>
            <rect class="cls-11" x="281.64" y="199.9" width="14.66" height="0.44" transform="translate(577.94 400.24) rotate(180)"/>
            <rect class="cls-11" x="265.78" y="199.9" width="14.66" height="0.44" transform="translate(546.22 400.24) rotate(180)"/>
            <rect class="cls-11" x="281.64" y="160.14" width="14.66" height="0.44" transform="translate(577.94 320.73) rotate(180)"/>
            <rect class="cls-16" x="280.26" y="151.97" width="1.56" height="48.77" transform="translate(562.08 352.7) rotate(180)"/>
            <rect class="cls-16" x="265.78" y="190.4" width="30.87" height="1.37" transform="translate(562.43 382.18) rotate(180)"/>
            <rect class="cls-16" x="265.78" y="180.47" width="30.87" height="1.37" transform="translate(562.43 362.3) rotate(180)"/>
            <rect class="cls-16" x="265.78" y="170.53" width="30.87" height="1.37" transform="translate(562.43 342.43) rotate(180)"/>
            <rect class="cls-16" x="265.78" y="160.59" width="30.87" height="1.37" transform="translate(562.43 322.55) rotate(180)"/>
            <polygon class="cls-19" points="202.28 199.9 210.5 199.9 200.99 152.02 192.78 152.02 202.28 199.9"/>
            <polygon class="cls-19" points="189.29 199.9 193.86 199.9 184.35 152.02 179.78 152.02 189.29 199.9"/>
            <rect class="cls-16" x="190.85" y="151.97" width="1.56" height="48.77" transform="translate(383.25 352.7) rotate(180)"/>
            <rect class="cls-16" x="176.36" y="190.4" width="30.87" height="1.37" transform="translate(383.6 382.18) rotate(180)"/>
            <rect class="cls-16" x="176.36" y="180.47" width="30.87" height="1.37" transform="translate(383.6 362.3) rotate(180)"/>
            <rect class="cls-16" x="176.36" y="170.53" width="30.87" height="1.37" transform="translate(383.6 342.43) rotate(180)"/>
            <rect class="cls-16" x="176.36" y="160.59" width="30.87" height="1.37" transform="translate(383.6 322.55) rotate(180)"/>
            <polygon class="cls-19" points="286.72 143.5 288.84 143.5 286.37 135.24 284.25 135.24 286.72 143.5"/>
            <polygon class="cls-19" points="277.98 143.5 279.46 143.5 276.99 135.24 275.51 135.24 277.98 143.5"/>
            <polygon class="cls-19" points="271.68 143.5 272.86 143.5 270.4 135.24 269.22 135.24 271.68 143.5"/>
            <polygon class="cls-19" points="203.14 143.5 205.25 143.5 202.79 135.24 200.67 135.24 203.14 143.5"/>
            <polygon class="cls-19" points="194.39 143.5 195.87 143.5 193.41 135.24 191.93 135.24 194.39 143.5"/>
            <polygon class="cls-19" points="188.1 143.5 189.28 143.5 186.81 135.24 185.63 135.24 188.1 143.5"/>
            <rect class="cls-11" x="176.39" y="160.14" width="14.66" height="0.44" transform="translate(367.44 320.73) rotate(180)"/>
            <rect class="cls-11" x="192.25" y="170.08" width="14.66" height="0.44" transform="translate(399.17 340.61) rotate(180)"/>
            <rect class="cls-11" x="176.39" y="170.08" width="14.66" height="0.44" transform="translate(367.44 340.61) rotate(180)"/>
            <rect class="cls-11" x="192.25" y="180.02" width="14.66" height="0.44" transform="translate(399.17 360.49) rotate(180)"/>
            <rect class="cls-11" x="176.39" y="180.02" width="14.66" height="0.44" transform="translate(367.44 360.49) rotate(180)"/>
            <rect class="cls-11" x="192.25" y="189.96" width="14.66" height="0.44" transform="translate(399.17 380.36) rotate(180)"/>
            <rect class="cls-11" x="176.39" y="189.96" width="14.66" height="0.44" transform="translate(367.44 380.36) rotate(180)"/>
            <rect class="cls-11" x="192.25" y="199.9" width="14.66" height="0.44" transform="translate(399.17 400.24) rotate(180)"/>
            <rect class="cls-11" x="176.39" y="199.9" width="14.66" height="0.44" transform="translate(367.44 400.24) rotate(180)"/>
            <rect class="cls-11" x="192.25" y="160.14" width="14.66" height="0.44" transform="translate(399.17 320.73) rotate(180)"/>
            <rect class="cls-20" x="232.21" y="151.86" width="8.57" height="14.31" transform="translate(395.5 -77.49) rotate(90)"/>
            <rect class="cls-20" x="248.08" y="151.86" width="8.57" height="14.31" transform="translate(411.37 -93.35) rotate(90)"/>
            <rect class="cls-11" x="229.19" y="162.85" width="14.66" height="0.44" transform="translate(473.05 326.14) rotate(180)"/>
            <rect class="cls-20" x="216.42" y="151.86" width="8.57" height="14.31" transform="translate(379.71 -61.7) rotate(90)"/>
            <rect class="cls-11" x="213.4" y="162.85" width="14.66" height="0.44" transform="translate(441.46 326.14) rotate(180)"/>
            <rect class="cls-11" x="245.06" y="162.85" width="14.66" height="0.44" transform="translate(504.77 326.14) rotate(180)"/>
            <rect class="cls-20" x="232.21" y="163.44" width="8.57" height="14.31" transform="translate(407.09 -65.91) rotate(90)"/>
            <rect class="cls-20" x="248.08" y="163.44" width="8.57" height="14.31" transform="translate(422.95 -81.77) rotate(90)"/>
            <rect class="cls-11" x="229.19" y="174.43" width="14.66" height="0.44" transform="translate(473.05 349.3) rotate(180)"/>
            <rect class="cls-20" x="216.42" y="163.44" width="8.57" height="14.31" transform="translate(391.3 -50.12) rotate(90)"/>
            <rect class="cls-11" x="213.4" y="174.43" width="14.66" height="0.44" transform="translate(441.46 349.3) rotate(180)"/>
            <rect class="cls-11" x="245.06" y="174.43" width="14.66" height="0.44" transform="translate(504.77 349.3) rotate(180)"/>
            <rect class="cls-21" x="210.92" y="136.82" width="50.63" height="3.74" transform="translate(472.47 277.39) rotate(180)"/>
            <rect class="cls-11" x="209.8" y="136.11" width="52.87" height="1.56" transform="translate(472.47 273.79) rotate(180)"/>
            <rect class="cls-22" x="235.83" y="189.47" width="0.12" height="13.46" transform="translate(471.77 392.4) rotate(180)"/>
            <rect class="cls-22" x="213.96" y="189.47" width="2.62" height="13.33" transform="translate(430.54 392.27) rotate(180)"/>
            <rect class="cls-22" x="255.92" y="189.47" width="2.62" height="13.33" transform="translate(514.46 392.27) rotate(180)"/>
            <rect class="cls-5" x="234.62" y="192.44" width="9.72" height="5.2" transform="translate(434.52 -44.44) rotate(90)"/>
            <rect class="cls-5" x="227.43" y="192.44" width="9.72" height="5.2" transform="translate(427.33 -37.25) rotate(90)"/>
            <polygon class="cls-23" points="239.35 199.9 241.62 199.9 239.82 190.18 237.55 190.18 239.35 199.9"/>
            <polygon class="cls-23" points="232.05 199.9 234.32 199.9 232.53 190.18 230.26 190.18 232.05 199.9"/>
            <rect class="cls-16" x="206.72" y="177.66" width="3.78" height="23.45" transform="translate(417.21 378.77) rotate(180)"/>
            <rect class="cls-17" x="207.44" y="149.47" width="3.47" height="53.05"/>
            <rect class="cls-24" x="255.05" y="141.84" width="3.29" height="1.2" transform="translate(513.4 284.89) rotate(180)"/>
            <rect class="cls-24" x="257.65" y="143.67" width="3.29" height="1.2" transform="translate(518.58 288.55) rotate(180)"/>
            <rect class="cls-24" x="255.52" y="145.66" width="3.36" height="1.02" transform="translate(514.4 292.34) rotate(180)"/>
            <rect class="cls-24" x="253.43" y="143.78" width="3.27" height="1.02" transform="translate(510.13 288.57) rotate(180)"/>
            <rect class="cls-24" x="233.4" y="145.76" width="2.66" height="0.91" transform="translate(469.45 292.43) rotate(180)"/>
            <rect class="cls-24" x="231.64" y="144.28" width="2.66" height="0.91" transform="translate(465.94 289.47) rotate(180)"/>
            <rect class="cls-24" x="247.06" y="192.66" width="2.66" height="0.91" transform="translate(496.77 386.22) rotate(180)"/>
            <rect class="cls-24" x="245.3" y="191.18" width="2.66" height="0.91" transform="translate(493.25 383.26) rotate(180)"/>
            <rect class="cls-24" x="218.73" y="192.21" width="2.66" height="0.91" transform="translate(440.12 385.33) rotate(180)"/>
            <rect class="cls-24" x="217.41" y="193.87" width="2.66" height="0.91" transform="translate(437.48 388.64) rotate(180)"/>
            <rect class="cls-24" x="218.43" y="142.26" width="3.29" height="1.2"/>
            <rect class="cls-24" x="210.92" y="145.47" width="1.07" height="1.2"/>
            <rect class="cls-24" x="210.9" y="143.55" width="2.29" height="1.2"/>
            <rect class="cls-24" x="216.8" y="143.84" width="3.29" height="1.2"/>
            <rect class="cls-24" x="241.16" y="144.24" width="3.29" height="1.2"/>
            <rect class="cls-24" x="243.12" y="142.44" width="3.29" height="1.2"/>
            <rect class="cls-24" x="217.88" y="145.66" width="3.36" height="1.02"/>
            <rect class="cls-24" x="223.5" y="196.46" width="3.29" height="1.2"/>
            <rect class="cls-24" x="221.87" y="198.04" width="3.29" height="1.2"/>
            <rect class="cls-24" x="222.95" y="199.86" width="3.36" height="1.02"/>
            <rect class="cls-24" x="248.41" y="196.7" width="3.29" height="1.2" transform="translate(500.1 394.61) rotate(180)"/>
            <rect class="cls-24" x="250.04" y="198.28" width="3.29" height="1.2" transform="translate(503.36 397.77) rotate(180)"/>
            <rect class="cls-24" x="248.87" y="200.1" width="3.36" height="1.02" transform="translate(501.11 401.22) rotate(180)"/>
            <rect class="cls-24" x="220.69" y="144.05" width="3.27" height="1.02"/>
            <rect class="cls-18" x="213.91" y="175.66" width="44.64" height="9.17" transform="translate(472.47 360.49) rotate(180)"/>
            <rect class="cls-25" x="213.91" y="180.95" width="44.64" height="3.87" transform="translate(472.47 365.78) rotate(180)"/>
            <polygon class="cls-19" points="255.63 162.88 258.32 162.88 253.84 154.72 251.15 154.72 255.63 162.88"/>
            <polygon class="cls-19" points="251.56 162.88 254.25 162.88 249.78 154.72 247.09 154.72 251.56 162.88"/>
            <polygon class="cls-19" points="239.79 162.88 242.48 162.88 238 154.72 235.31 154.72 239.79 162.88"/>
            <polygon class="cls-19" points="235.72 162.88 238.41 162.88 233.94 154.72 231.25 154.72 235.72 162.88"/>
            <polygon class="cls-19" points="223.95 162.88 226.64 162.88 222.17 154.72 219.48 154.72 223.95 162.88"/>
            <polygon class="cls-19" points="219.89 162.88 222.58 162.88 218.1 154.72 215.41 154.72 219.89 162.88"/>
            <polygon class="cls-19" points="255.63 174.47 258.32 174.47 253.84 166.31 251.15 166.31 255.63 174.47"/>
            <polygon class="cls-19" points="251.56 174.47 254.25 174.47 249.78 166.31 247.09 166.31 251.56 174.47"/>
            <polygon class="cls-19" points="239.79 174.47 242.48 174.47 238 166.31 235.31 166.31 239.79 174.47"/>
            <polygon class="cls-19" points="235.72 174.47 238.41 174.47 233.94 166.31 231.25 166.31 235.72 174.47"/>
            <polygon class="cls-19" points="223.95 174.47 226.64 174.47 222.17 166.31 219.48 166.31 223.95 174.47"/>
            <polygon class="cls-19" points="219.89 174.47 222.58 174.47 218.1 166.31 215.41 166.31 219.89 174.47"/>
            <rect class="cls-11" x="212.92" y="185.6" width="46.63" height="3.87" transform="translate(472.47 375.07) rotate(180)"/>
            <rect class="cls-11" x="172.47" y="147.84" width="52.87" height="1.8"/>
            <rect class="cls-11" x="218.43" y="147.84" width="81.77" height="1.8" transform="translate(518.62 297.49) rotate(180)"/>
            <g>
              <g>
                <path class="cls-10" d="M342.91,195.16a98,98,0,0,0,3.83-10.74A69.89,69.89,0,0,0,349,160.9c0-.52.87-.66.94-.12a40.67,40.67,0,0,1,.34,5.62,67.63,67.63,0,0,1-.61,9.52,6.88,6.88,0,0,0,6.22-1.81c3.05-2.63,4.14-6.14,4.62-10,.05-.39.06-.77.4-1a.24.24,0,0,1,.46,0c.49.47.25,1.42.18,2-1,8.27-6.28,12.28-10.53,12.25a7,7,0,0,1-1.54-.16c-.3,2-.7,3.94-1.18,5.89A82.76,82.76,0,0,1,344.67,194c-4.84,12.11-6.39,18.3-7.77,21.81a.58.58,0,0,1-1.11-.3C335.86,215.21,339.64,203.28,342.91,195.16Z"/>
                <path class="cls-10" d="M323.51,163.31a6.66,6.66,0,0,1,.26-.67c.08-.33.63-.36.69,0,0,.2.15.32.2.53a71.56,71.56,0,0,0,.72,10.21,24.14,24.14,0,0,0,1.06,4.52,15.84,15.84,0,0,0,4.4,6.53,94.84,94.84,0,0,1,.7-10.11q.39-3,1-6c.19-1,.39-1.93.61-2.89a10.46,10.46,0,0,1,1-2.89.32.32,0,0,1,.6.16,12,12,0,0,1-.38,2.59c-.2.86-.38,1.73-.55,2.6A92.84,92.84,0,0,0,332,186.56a38.56,38.56,0,0,0,5.24-8.41A37.2,37.2,0,0,0,340.42,167c.13-1.08.2-2.16.23-3.25,0-.56,0-1.12,0-1.68,0-.29.12-1.16.63-.9s.42.75.46,1.21.05,1,0,1.5c0,1-.06,1.91-.16,2.87a39.27,39.27,0,0,1-7.57,19.34,20.42,20.42,0,0,1-2,2.51c.17,11.06,1.9,25,1.93,26.15a6.23,6.23,0,0,1-.09.74c-.08.5-.77.38-.92,0-.26-.73-.23-1-.63-5-.71-7.19-1.51-23.68-1.51-24.35a15.82,15.82,0,0,1-5.36-7,20.76,20.76,0,0,1-1.23-4.46A50.88,50.88,0,0,1,323.51,163.31Z"/>
              </g>
              <path class="cls-11" d="M340.48,154.29a19.79,19.79,0,0,1-.14-2.45c0-9.24,6-16.74,13.46-16.74s13.47,7.5,13.47,16.74a19.78,19.78,0,0,1-.15,2.45Z"/>
              <path class="cls-7" d="M325.24,150.17c-.09-1.12-.14-2.27-.14-3.44,0-13,6-23.62,13.46-23.62S352,133.68,352,146.73c0,1.17,0,2.32-.15,3.44Z"/>
              <path class="cls-11" d="M351.72,164.64a32.32,32.32,0,0,0,.18-3.44c0-13-7.64-23.62-17.07-23.62s-17.07,10.58-17.07,23.62a32.32,32.32,0,0,0,.18,3.44Z"/>
              <path class="cls-7" d="M338.61,137.58c4.71,0,8.92,3.36,11.7,8.62a13.68,13.68,0,0,1,4.48-.75c8.36,0,15.14,7.5,15.14,16.75a17.75,17.75,0,0,1-.16,2.44H323.63c-.11-1.12-.16-2.27-.16-3.44C323.47,148.16,330.25,137.58,338.61,137.58Z"/>
            </g>
            <g>
              <path class="cls-13" d="M329.83,197.28l1.41-1.71a2.75,2.75,0,0,0-.47-4h0a7.72,7.72,0,0,0-10.43,1.72l-1.87,2.37a3.67,3.67,0,0,1-3.31,1.37,3.23,3.23,0,0,0-2.91,1.22l-1,1.25a5.46,5.46,0,0,0-1.06,4.66,3.32,3.32,0,0,1-.67,2.83l-1.39,1.77a4.17,4.17,0,0,0,.7,6.05l1.1.79a4.67,4.67,0,0,0,6.3-1h0c1.63-2.7,3.52-3.58,5.05-3.76a8.59,8.59,0,0,0,5.75-3.18l.2-.25a7.77,7.77,0,0,0,1.53-6.49A4.25,4.25,0,0,1,329.83,197.28Z"/>
              <path class="cls-8" d="M302,216.07s7.24-9.17,11.8-10.57,1,3.44,1,3.44,7.35-7.69,10.31-6.93c2.72.7,0,5.92,0,5.92s3.07-2.89,6.78-2.89-2.87,10.83-2.87,10.83Z"/>
              <path class="cls-7" d="M325.15,216s5-13.49,11.15-12c5,1.18,1.37,8.4,1.67,8.12s3-4.6,7.28-4.6-1.32,5.81-1.32,5.81,9.18-2.73,9.9.14c.6,2.38-2.74,2.56-2.74,2.56Z"/>
            </g>
            <g>
              <path class="cls-26" d="M151.1,179.91s2.33,10.89,1.27,11.9-6.92,3.07-8.25,2.6-4.07-12.91-3.31-14.14S150.49,178.18,151.1,179.91Z"/>
              <path class="cls-27" d="M150.16,212.23s-.15,1.25-.15,1.46v.21l.11.22,0,.08-.78,1.05-3.22.05c-.07,0,.42-.73.42-.73s1-.74,1.23-1.27a3.53,3.53,0,0,0-.16-1.62Z"/>
              <path class="cls-27" d="M165.34,204.75s1.12.66,1.29.8l.18.13.11.21,0,.09,1.35.06,2-2.37s-.58.08-.58.08a5.7,5.7,0,0,1-1.8,0,7.55,7.55,0,0,1-1.66-1.22Z"/>
              <path class="cls-28" d="M155.15,193l12.08,9.81-1.86,2.51s-11.86-7.1-12.51-7.18-1.67.13-1.79.58-.5,13.84-.5,13.84h-3.23l-1.68-17.08Z"/>
              <g>
                <path class="cls-27" d="M137.74,179a33.49,33.49,0,0,1-3.7-3.44,2.22,2.22,0,0,0-.65-1.21c-.4-.45-.71-1.46-1-1.17s.39,1.09.09,1.1-1.79-1.6-2-1.34,1.27,1.69,1,1.69-1.5-1.43-1.84-1.06,1.62,1.56,1.43,1.76-1.39-.59-1.66-.29,1.71,1,1.55,1-1.3,0-1.31.19,2.89.6,3.24,1h0a16.28,16.28,0,0,0,3.48,4.18c1.67,1.12,5.53,3.52,5.53,3.52l1.92-2.37S138.8,179.69,137.74,179Z"/>
                <path class="cls-29" d="M132.51,174.82a1.16,1.16,0,0,0-.12.44,1.09,1.09,0,0,0,.38.89A1.81,1.81,0,0,1,132.51,174.82Z"/>
              </g>
              <g>
                <path class="cls-27" d="M155.45,176.45a33.4,33.4,0,0,0,2.64-4.25,2.14,2.14,0,0,1,.29-1.33c.26-.53.28-1.59.62-1.38s-.08,1.16.21,1.09,1.29-2,1.6-1.79-.77,1.94-.51,1.88,1-1.76,1.48-1.49-1.13,1.91-.9,2.06,1.19-.91,1.53-.69-1.37,1.38-1.22,1.35,1.25-.35,1.32-.15-2.63,1.3-2.86,1.79h0a15.34,15.34,0,0,1-2.21,4.89c-1.3,1.51-4.37,4.78-4.37,4.78l-2.5-1.8S154.61,177.35,155.45,176.45Z"/>
                <path class="cls-29" d="M159.35,171.07a1.16,1.16,0,0,1,.23.4,1.05,1.05,0,0,1-.12,1A1.76,1.76,0,0,0,159.35,171.07Z"/>
              </g>
              <path class="cls-30" d="M153.43,178.19l2.25,2.81-2.8,4a21,21,0,0,0,.67,3.87c.4.92,2.74,4.7,2.74,4.7s-5.67,3.32-11.22,2.83c0,0-1.56-7.67-2-8.4a57.09,57.09,0,0,0-4.67-4.39l2-3.16,3.55,1.87s6.48-1,6.79-1.29S153.43,178.19,153.43,178.19Z"/>
              <path class="cls-22" d="M146.11,172.46s2.19-1.11,2.94.72c0,0,2-.19,1.63,1.75,0,0,2,.95.72,3.4,0,0,.55,2.29-2.27,2.44a1.56,1.56,0,0,1-1.71.62,3.15,3.15,0,0,1-1.61-.51s-2.29.64-3-1.33c0,0-1.56-.35-.51-2.27,0,0-1.37-2.49,1-3.24A1.87,1.87,0,0,1,146.11,172.46Z"/>
              <path class="cls-27" d="M145.23,177.85c.18.47.05,1-.29,1.06s-.75-.17-.93-.65,0-.95.29-1.06S145.05,177.37,145.23,177.85Z"/>
              <path class="cls-27" d="M151.13,176.69c0,.5-.24.92-.6.93s-.66-.37-.69-.88.25-.92.6-.93S151.11,176.18,151.13,176.69Z"/>
              <path class="cls-27" d="M148.63,180s.28,1.2.43,1.81a.49.49,0,0,1-.29.57,2.51,2.51,0,0,1-2.6-.08.29.29,0,0,1-.11-.25l.1-2.79Z"/>
              <path class="cls-29" d="M148.78,180.66a2.43,2.43,0,0,1-2.34-.19l-.32-.2,0-1,2.47.74S148.69,180.31,148.78,180.66Z"/>
              <path class="cls-27" d="M146.88,173.59a3.11,3.11,0,0,0-1.71,1.27c-.64,1-1,3.89,1.27,5.16s3.91-.7,3.87-2.55S149.4,173.25,146.88,173.59Z"/>
              <path class="cls-26" d="M150.73,216c.49-.06-.35-1.65-.61-1.9l-3.54.45a13.38,13.38,0,0,0-2.11,1.14c-.09.09-.11.25.31.31A36.89,36.89,0,0,0,150.73,216Z"/>
              <path class="cls-26" d="M168.13,207.56c-.41.24-1.17-1.31-1.21-1.67l2.85-2.14s2.21-.6,2.65-.18S169.07,207,168.13,207.56Z"/>
              <path class="cls-26" d="M144.17,193.27c2.28-2.17,1.83-8.86,1.41-11.68l-1,.13c.35,2.39.84,9-1.13,10.89Z"/>
              <path class="cls-26" d="M153.9,189.53l.12-.85a73.27,73.27,0,0,0-3.42-7.9l-.88.43S151.61,185.45,153.9,189.53Z"/>
            </g>
            <g>
              <path class="cls-16" d="M110.09,180.72s-3.89-.49-5.31.21-2.2,9-2.2,9l1.26.36s-.18,5.78.79,6.18,7.73-.85,9.27-2.32-1.36-13.77-1.36-13.77Z"/>
              <g>
                <path class="cls-27" d="M117.77,174.84a32.1,32.1,0,0,0,1.22-5,2.22,2.22,0,0,1-.15-1.41c.09-.61-.25-1.67.16-1.55s.3,1.17.57,1,.63-2.36,1-2.26-.12,2.16.12,2,.46-2.07,1-1.93-.49,2.25-.21,2.32.87-1.26,1.29-1.15-.91,1.8-.77,1.71,1.13-.72,1.26-.54-2.18,2.09-2.25,2.64h0c0,1.41.08,4-.57,5.52-.8,1.89-2.77,6.07-2.77,6.07l-3.08-1S117.23,176,117.77,174.84Z"/>
                <path class="cls-29" d="M119.87,168.33a1.19,1.19,0,0,1,.56,1.31A1.9,1.9,0,0,0,119.87,168.33Z"/>
              </g>
              <path class="cls-27" d="M98.05,181.47a2.14,2.14,0,0,0-.2-1.27c-.22-.5-.19-1.49-.5-1.31s0,1.08-.24,1S96,178,95.76,178.14s.61,1.85.38,1.78-.87-1.69-1.26-1.46.92,1.84.71,2-1-.91-1.33-.72,1.17,1.36,1,1.32-1.1-.39-1.17-.2,1.93,1,2.12,1.5,3.25,5.21,4.27,5.32,5.92-2.37,6.36-3.3.14-2-.51-2.19-5.24,2.29-5.45,2.23S98.05,181.47,98.05,181.47Z"/>
              <path class="cls-29" d="M97.16,180.23a1.16,1.16,0,0,0-.25.41,1.14,1.14,0,0,0,.12,1A1.87,1.87,0,0,1,97.16,180.23Z"/>
              <path class="cls-27" d="M102.21,203.61a6.56,6.56,0,0,1-1.48-1.1A40.61,40.61,0,0,0,97,206.22a1.06,1.06,0,0,0,.87.14c.41-.18,2.27-1,3.13-.68.23.07,2.75.89,5,1.44.27-.77-.48-2.3-.11-3A24,24,0,0,0,102.21,203.61Z"/>
              <path class="cls-31" d="M101.6,203.25s-2.19,2.14-2.4,2.52-2.9,1.37-3,1,3.24-4.64,3.77-4.8S101.6,203.25,101.6,203.25Z"/>
              <path class="cls-27" d="M115.81,209.82a5.76,5.76,0,0,1-1.17,1.37,40.69,40.69,0,0,0,4.08,3.42.87.87,0,0,0,.14-.81c-.2-.37-1.19-2.67-.88-3.47a18.13,18.13,0,0,1,1.19-2.63,23.31,23.31,0,0,1-2.44-1C116.35,207.84,115.87,209.66,115.81,209.82Z"/>
              <path class="cls-28" d="M115.47,193.25s5.71,5.37,6.29,6.41c.43.77-2.2,8.74-2.2,8.74s-2.48-.18-3.51-1.14c0,0,1.31-5.55,1-5.8s-6.79-3.86-6.79-3.86l.81-3.29Z"/>
              <path class="cls-22" d="M114.21,193.11s-1.49,3.29-1.49,4.58c0,1,.45,8.88-1.73,9.64-1.24.43-7.07-.2-7.07-.2l.53-3.58s2.78.4,3,.17-2.22-6.18-1.71-8.22,4.8-3.29,4.8-3.29Z"/>
              <path class="cls-32" d="M116.06,177.78s.69.2,2.84,3l-3.44,5.19-2.1-4.82Z"/>
              <path class="cls-32" d="M111,181.17a18.67,18.67,0,0,0,2.59-.45c.68-.23,5.17,13.89,3.6,14.21-3.28.67-11.79,2.46-11.79,2.46a4.88,4.88,0,0,1,.31-2.2,45.55,45.55,0,0,0,1.24-8.91c0-.57-3.1,1.41-3.1,1.41l-1.31-4.48s4-1.52,5.36-1.8C108.33,181.34,111,181.17,111,181.17Z"/>
              <path class="cls-16" d="M117,190.23c-.5-2.3-4.75-9.22-4.78-9.29l.87-.44c.15.27,3.59,6.12,4.12,8.56Z"/>
              <path class="cls-31" d="M115.47,210.34s2.48,2.15,2.92,2.36,1.21,2.71.75,2.85-5.06-3-5.25-3.54S115.47,210.34,115.47,210.34Z"/>
              <path class="cls-16" d="M105.71,193.26l-.44-.68s3.79-2.31,4.22-5.23-1.76-6-1.78-6.07l.69-.45c.1.13,2.39,3.38,1.92,6.63S105.88,193.16,105.71,193.26Z"/>
              <path class="cls-11" d="M111.1,171.73a2.17,2.17,0,0,1,2.47.93c1,1.45.45,1.31.92,2s1.7.57,1.7,1.7-.55,1.3-.55,1.3a1.82,1.82,0,0,1,0,1.77,3.54,3.54,0,0,1-3.07,1.56,5.55,5.55,0,0,1-3.46.47c-1.73-.42-1.13-.42-1.84-.42s-2.62-.93-2.31-2.28a1.74,1.74,0,0,1,0-2.4c1.13-1.08,1.34-2.18,2-3.63S110.31,171.38,111.1,171.73Z"/>
              <path class="cls-27" d="M112.1,179.45a8.9,8.9,0,0,0,.13,2.18.71.71,0,0,1,.19,1c-.29.48-1.55.17-2.13-.1a2.68,2.68,0,0,1-.92-.75l.29-3.15Z"/>
              <path class="cls-28" d="M111.27,180.28a3,3,0,0,1-1.65-1.24l0-.44,2.44.85s0,.49,0,1A2.92,2.92,0,0,1,111.27,180.28Z"/>
              <path class="cls-27" d="M109.23,176.35s-.06-1.18-.81-.95-.18,2,.44,1.94S109.23,176.35,109.23,176.35Z"/>
              <path class="cls-27" d="M111.6,172.52a2.32,2.32,0,0,1,1.79.85,5.55,5.55,0,0,1,.26,5.1,2.1,2.1,0,0,1-2.8,1.13,3.05,3.05,0,0,1-2.08-2.18C108.24,175.81,108.62,172.18,111.6,172.52Z"/>
            </g>
            <rect class="cls-11" x="10.58" y="215.93" width="345.86" height="1.07" transform="translate(367.03 432.93) rotate(180)"/>
          </g>
          <path class="cls-33" d="M118,207.55h-1.88a.8.8,0,0,0,.87.71C118,208.29,118,207.55,118,207.55Z"/>
          <path class="cls-33" d="M153.66,208.42l-1.88.16a.82.82,0,0,0,.94.63C153.73,209.15,153.66,208.42,153.66,208.42Z"/>
        </g>
      </g>
    </g>
  </g>
</svg>
