<svg xmlns="http://www.w3.org/2000/svg" viewBox="0 0 359.72 217.02">
  <defs>
    <style>
      .cls-1 {
        isolation: isolate;
      }

      .cls-2 {
        opacity: 0.13;
      }

      .cls-3 {
        fill: #9bc1f9;
      }

      .cls-17, .cls-18, .cls-3 {
        opacity: 0.3;
      }

      .cls-26, .cls-4 {
        fill: #fff;
      }

      .cls-14, .cls-31, .cls-39, .cls-4, .cls-41 {
        opacity: 0.5;
      }

      .cls-5 {
        fill: #0e2e35;
      }

      .cls-6 {
        fill: #184655;
      }

      .cls-7 {
        fill: #3c8f7c;
      }

      .cls-8 {
        fill: #355389;
      }

      .cls-41, .cls-9 {
        fill: #50bfa5;
      }

      .cls-10 {
        fill: #b75742;
      }

      .cls-11, .cls-14 {
        fill: #f8c48b;
      }

      .cls-12, .cls-17 {
        fill: #fcf5eb;
      }

      .cls-13 {
        fill: #9b4234;
      }

      .cls-14, .cls-18, .cls-30, .cls-31, .cls-41 {
        mix-blend-mode: multiply;
      }

      .cls-15 {
        fill: #3e6193;
      }

      .cls-16 {
        fill: #f2e3d1;
      }

      .cls-17 {
        mix-blend-mode: overlay;
      }

      .cls-18 {
        fill: #f4b98c;
      }

      .cls-19 {
        fill: #31535b;
      }

      .cls-20 {
        fill: #f7cc7f;
      }

      .cls-21 {
        fill: #f8a492;
      }

      .cls-22 {
        fill: #f7a491;
      }

      .cls-23 {
        fill: #466eb6;
      }

      .cls-24, .cls-31, .cls-39 {
        fill: #f47458;
      }

      .cls-25 {
        fill: #13375b;
      }

      .cls-27 {
        fill: #f48c7f;
      }

      .cls-28, .cls-30 {
        fill: #8c716c;
      }

      .cls-29 {
        fill: #96d9c9;
      }

      .cls-32 {
        fill: #327f6b;
      }

      .cls-33 {
        fill: #e25a44;
      }

      .cls-34 {
        fill: #eab054;
      }

      .cls-35 {
        fill: #00213d;
      }

      .cls-36 {
        fill: #001333;
      }

      .cls-37 {
        fill: #223c56;
      }

      .cls-38 {
        fill: #264160;
      }

      .cls-40 {
        fill: #7f1ca0;
      }
    </style>
  </defs>
  <g class="cls-1">
    <g id="Layer_2" data-name="Layer 2">
      <g id="Layer_1-2" data-name="Layer 1">
        <g class="cls-2">
          <path class="cls-3" d="M9.55,198.37,350,198.8c22.53-18.7,1.15-76.82-17.67-88.23-20.26-12.29,1.28-68.87-29.93-82.66-20.37-9-68.48,10.94-82.94-7.73-25.85-33.39-60.8-18-92-5.73C89,29.58,77.54,15.52,43.09,36.93-9,69.32,42.17,125.67,18.41,142.34-16.43,166.79,8.73,197.92,9.55,198.37Z"/>
          <path class="cls-4" d="M139.35,58.8A5.23,5.23,0,0,0,133,54.91a7.62,7.62,0,0,0-6.92-4.43,7.76,7.76,0,0,0-2.28.34,9.41,9.41,0,0,0-16.94,1.66,6.41,6.41,0,0,0-3.14-.82,6.49,6.49,0,0,0-6.47,6.51q0,.31,0,.63Z"/>
          <g>
            <path class="cls-5" d="M334.46,157.4c0-.26-.42-.46-.58-.23s-.18.08-.31.57a13.81,13.81,0,0,1-1.76,4,14.22,14.22,0,0,1-4.9,4.6,14.6,14.6,0,0,0,.76-5.66,4.84,4.84,0,0,0-.54-2.09c-.11-.18-.43-.14-.44.06-.05,1,.28,1.75.16,3.54-.28,4.27-2.85,8.8-5.47,12a61,61,0,0,0-2.14-16.89c-.27-.89-.64-1.74-1-2.61a.16.16,0,1,0-.3.09c.08.29,1,4,1.06,4.27a66.1,66.1,0,0,1,1.51,12.87,29.35,29.35,0,0,1-5.81-10.51c-.35-1.12-.54-2.27-1-3.37-.06-.15-.31-.17-.32,0-.12,1.65.84,4.56,1.47,6.14a29.23,29.23,0,0,0,5.38,8.64c.08.1-.28,25.16-.16,25.48.21.53,1.2.91,1.24,0,0-.39,0-15.63,0-22.69.28-.17.45-.46,1.14-1.34a28.8,28.8,0,0,0,4-6.95c.72,0,5.67-2.56,7.61-8.3.05-.17.3-.94.33-1.12A1.55,1.55,0,0,0,334.46,157.4Z"/>
            <path class="cls-6" d="M317.28,149.21q.09-1.17.09-2.4c0-9.06-3.84-16.41-8.59-16.41s-8.59,7.35-8.59,16.41q0,1.23.09,2.4Z"/>
            <path class="cls-7" d="M327,145.17c.06-1.1.09-2.23.09-3.37,0-12.79-3.85-23.15-8.59-23.15s-8.6,10.36-8.6,23.15c0,1.14,0,2.27.09,3.37Z"/>
            <path class="cls-7" d="M323.86,159.36c-.06-.78-.09-1.58-.09-2.39,0-9.07,3.85-16.42,8.6-16.42S341,147.9,341,157c0,.81,0,1.61-.09,2.39Z"/>
            <path class="cls-6" d="M310.11,159.36c-.08-1.1-.12-2.23-.12-3.38,0-12.78,4.88-23.15,10.9-23.15S331.78,143.2,331.78,156c0,1.15,0,2.28-.11,3.38Z"/>
            <path class="cls-7" d="M318.47,132.83c-3,0-5.69,3.29-7.46,8.45a6.2,6.2,0,0,0-2.86-.73c-5.34,0-9.67,7.35-9.67,16.42,0,.81,0,1.61.1,2.39H328c.07-1.1.1-2.23.1-3.38C328.14,143.2,323.81,132.83,318.47,132.83Z"/>
          </g>
          <path class="cls-4" d="M221.6,60.31a3.88,3.88,0,0,1,3.77-3,3.93,3.93,0,0,1,1,.12,5.71,5.71,0,0,1,5.16-3.31,5.65,5.65,0,0,1,1.7.26,7,7,0,0,1,12.62,1.24,4.74,4.74,0,0,1,2.34-.61A4.84,4.84,0,0,1,253,59.84c0,.15,0,.31,0,.47Z"/>
          <path class="cls-4" d="M198.73,29.76A3.54,3.54,0,0,0,195.29,27a3.24,3.24,0,0,0-.89.12,5.2,5.2,0,0,0-4.71-3,5.27,5.27,0,0,0-1.54.24,6.39,6.39,0,0,0-11.51,1.12,4.39,4.39,0,0,0-6.52,3.87,3.1,3.1,0,0,0,0,.43Z"/>
          <g>
            <rect class="cls-8" x="17.21" y="181.4" width="0.77" height="9.03"/>
            <polygon class="cls-7" points="17.73 165.3 15.19 183.53 20.27 183.53 17.73 165.3"/>
            <polygon class="cls-9" points="15.35 182.37 19.91 180.93 19.84 180.44 15.43 181.83 15.35 182.37"/>
            <polygon class="cls-9" points="16.16 176.61 19.18 175.66 19.11 175.17 16.23 176.07 16.16 176.61"/>
          </g>
          <g>
            <rect class="cls-8" x="8.39" y="179.95" width="1.16" height="12.85"/>
            <polygon class="cls-7" points="8.97 155.01 5.18 185.6 12.76 185.6 8.97 155.01"/>
            <polygon class="cls-9" points="6.56 174.51 11.96 179.14 11.75 177.46 6.72 173.15 6.56 174.51"/>
            <polygon class="cls-9" points="7.39 167.8 10.69 168.93 10.54 167.68 7.53 166.65 7.39 167.8"/>
          </g>
          <polygon class="cls-10" points="140.55 70.44 175.06 57.14 208.5 70.44 177.47 71.72 141.28 71.12 140.55 70.44"/>
          <g>
            <polygon class="cls-10" points="306.62 66.29 292.04 38.75 276.39 38.75 262.17 66.29 306.62 66.29"/>
            <rect class="cls-11" x="261.81" y="68.64" width="44.81" height="129.69" transform="translate(568.43 266.98) rotate(180)"/>
            <rect class="cls-12" x="270.91" y="118.74" width="37.19" height="3.14" transform="translate(579 240.62) rotate(180)"/>
            <rect class="cls-13" x="269.1" y="178.47" width="37.52" height="19.86" transform="translate(575.72 376.8) rotate(180)"/>
            <rect class="cls-12" x="270.91" y="175.33" width="37.19" height="3.14" transform="translate(579 353.79) rotate(180)"/>
            <rect class="cls-14" x="261.81" y="68.64" width="14.58" height="129.69" transform="translate(538.2 266.98) rotate(180)"/>
            <g>
              <g>
                <path class="cls-10" d="M296.86,142.34a2.79,2.79,0,1,0,2.79-2.79A2.79,2.79,0,0,0,296.86,142.34Z"/>
                <path class="cls-12" d="M295,129.7c0-2.08,2.09-3.77,4.67-3.77s4.67,1.69,4.67,3.77v0h0v11.65H295V129.72h0Z"/>
                <path class="cls-15" d="M295.71,129.93c0-1.82,1.77-3.3,3.94-3.3s3.94,1.48,3.94,3.3v0h0v10.71h-7.88V130h0Z"/>
                <rect class="cls-12" x="299.49" y="126.03" width="0.35" height="15.23" transform="translate(599.32 267.29) rotate(180)"/>
                <rect class="cls-16" x="293.86" y="141.37" width="11.5" height="0.97" transform="translate(599.22 283.71) rotate(180)"/>
                <rect class="cls-12" x="299.49" y="127.35" width="0.35" height="8.68" transform="translate(431.35 -167.98) rotate(90)"/>
                <rect class="cls-12" x="299.49" y="131.84" width="0.35" height="8.68" transform="translate(435.84 -163.48) rotate(90)"/>
              </g>
              <path class="cls-17" d="M295.71,131.65V130h0v0a3.37,3.37,0,0,1,2.51-3.07l5.37,8.26v5.54h-2.68C299.43,138.08,297.36,134.49,295.71,131.65Z"/>
            </g>
            <g>
              <g>
                <path class="cls-10" d="M281.48,142.34a2.79,2.79,0,1,0,2.79-2.79A2.79,2.79,0,0,0,281.48,142.34Z"/>
                <path class="cls-12" d="M279.6,129.7c0-2.08,2.09-3.77,4.67-3.77s4.67,1.69,4.67,3.77v0h0v11.65H279.6V129.72h0Z"/>
                <path class="cls-15" d="M280.33,129.93c0-1.82,1.76-3.3,3.94-3.3s3.94,1.48,3.94,3.3v0h0v10.71h-7.88V130h0Z"/>
                <rect class="cls-12" x="284.1" y="126.03" width="0.35" height="15.23" transform="translate(568.56 267.29) rotate(180)"/>
                <rect class="cls-16" x="278.48" y="141.37" width="11.5" height="0.97" transform="translate(568.46 283.71) rotate(180)"/>
                <rect class="cls-12" x="284.1" y="127.35" width="0.35" height="8.68" transform="translate(415.96 -152.59) rotate(90)"/>
                <rect class="cls-12" x="284.1" y="131.84" width="0.35" height="8.68" transform="translate(420.46 -148.09) rotate(90)"/>
              </g>
              <path class="cls-17" d="M280.33,131.65V130h0v0a3.37,3.37,0,0,1,2.51-3.07l5.37,8.26v5.54h-2.69C284,138.08,282,134.49,280.33,131.65Z"/>
            </g>
            <g>
              <g>
                <path class="cls-10" d="M296.86,170.9a2.79,2.79,0,1,0,2.79-2.79A2.79,2.79,0,0,0,296.86,170.9Z"/>
                <path class="cls-12" d="M295,158.26c0-2.08,2.09-3.77,4.67-3.77s4.67,1.69,4.67,3.77h0v11.66H295V158.27h0Z"/>
                <path class="cls-15" d="M295.71,158.49c0-1.82,1.77-3.3,3.94-3.3s3.94,1.48,3.94,3.3v0h0v10.71h-7.88V158.51h0Z"/>
                <rect class="cls-12" x="299.49" y="154.59" width="0.35" height="15.23" transform="translate(599.32 324.41) rotate(180)"/>
                <rect class="cls-16" x="293.86" y="169.93" width="11.5" height="0.97" transform="translate(599.22 340.83) rotate(180)"/>
                <rect class="cls-12" x="299.49" y="155.91" width="0.35" height="8.68" transform="translate(459.91 -139.42) rotate(90)"/>
                <rect class="cls-12" x="299.49" y="160.4" width="0.35" height="8.68" transform="translate(464.4 -134.92) rotate(90)"/>
              </g>
              <path class="cls-17" d="M295.71,160.21v-1.7h0v0a3.37,3.37,0,0,1,2.51-3.07l5.37,8.26v5.54h-2.68C299.43,166.64,297.36,163.05,295.71,160.21Z"/>
            </g>
            <g>
              <g>
                <path class="cls-10" d="M281.48,170.9a2.79,2.79,0,1,0,2.79-2.79A2.79,2.79,0,0,0,281.48,170.9Z"/>
                <path class="cls-12" d="M279.6,158.26c0-2.08,2.09-3.77,4.67-3.77s4.67,1.69,4.67,3.77h0v11.66H279.6V158.27h0Z"/>
                <path class="cls-15" d="M280.33,158.49c0-1.82,1.76-3.3,3.94-3.3s3.94,1.48,3.94,3.3v0h0v10.71h-7.88V158.51h0Z"/>
                <rect class="cls-12" x="284.1" y="154.59" width="0.35" height="15.23" transform="translate(568.56 324.41) rotate(180)"/>
                <rect class="cls-16" x="278.48" y="169.93" width="11.5" height="0.97" transform="translate(568.46 340.83) rotate(180)"/>
                <rect class="cls-12" x="284.1" y="155.91" width="0.35" height="8.68" transform="translate(444.52 -124.03) rotate(90)"/>
                <rect class="cls-12" x="284.1" y="160.4" width="0.35" height="8.68" transform="translate(449.02 -119.53) rotate(90)"/>
              </g>
              <path class="cls-17" d="M280.33,160.21v-1.7h0v0a3.37,3.37,0,0,1,2.51-3.07l5.37,8.26v5.54h-2.69C284,166.64,282,163.05,280.33,160.21Z"/>
            </g>
            <polygon class="cls-12" points="279.17 66.29 279.85 66.29 309.56 66.29 309.56 68.81 279.85 68.81 279.17 68.81 258.87 68.81 258.87 66.29 279.17 66.29"/>
            <g>
              <g>
                <path class="cls-10" d="M288.26,101.28a3.55,3.55,0,1,0,3.55-3.55A3.55,3.55,0,0,0,288.26,101.28Z"/>
                <path class="cls-12" d="M285.87,85.21c0-2.65,2.66-4.79,5.94-4.79s5.93,2.14,5.93,4.79v0h0v14.82H285.87V85.23h0Z"/>
                <path class="cls-15" d="M286.8,85.51c0-2.32,2.24-4.21,5-4.21s5,1.89,5,4.21h0V99.14h-10V85.52h0Z"/>
                <rect class="cls-12" x="291.6" y="80.54" width="0.44" height="19.37" transform="translate(583.64 180.44) rotate(180)"/>
                <rect class="cls-16" x="284.45" y="100.05" width="14.62" height="1.23" transform="translate(583.51 201.33) rotate(180)"/>
                <rect class="cls-12" x="291.6" y="82.21" width="0.44" height="11.03" transform="translate(379.55 -204.09) rotate(90)"/>
                <rect class="cls-12" x="291.6" y="87.93" width="0.44" height="11.03" transform="translate(385.27 -198.37) rotate(90)"/>
              </g>
              <path class="cls-17" d="M286.82,87.7V85.54h0v0A4.28,4.28,0,0,1,290,81.61l6.82,10.51v7h-3.41Z"/>
            </g>
            <path class="cls-14" d="M276.39,66.29c-.33,0,8-27.54,8-27.54h-8L262.17,66.29Z"/>
            <polygon class="cls-12" points="282.31 36.93 282.57 36.93 293.78 36.93 293.78 39.45 282.57 39.45 282.31 39.45 274.65 39.45 274.65 36.93 282.31 36.93"/>
            <polygon class="cls-10" points="284.21 5.52 284.21 5.5 292.84 36.93 287.92 36.93 283.96 36.93 283.96 36.94 275.59 36.94 284.21 5.52"/>
          </g>
          <g>
            <polygon class="cls-10" points="43.09 66.29 57.67 38.75 73.33 38.75 87.55 66.29 43.09 66.29"/>
            <rect class="cls-11" x="43.09" y="68.64" width="44.81" height="129.69"/>
            <rect class="cls-12" x="41.62" y="118.74" width="37.19" height="3.14"/>
            <rect class="cls-13" x="43.09" y="178.47" width="37.52" height="19.86"/>
            <rect class="cls-12" x="41.62" y="175.33" width="37.19" height="3.14"/>
            <rect class="cls-14" x="73.33" y="68.64" width="14.58" height="129.69"/>
            <g>
              <g>
                <path class="cls-10" d="M52.85,142.34a2.79,2.79,0,1,1-2.79-2.79A2.79,2.79,0,0,1,52.85,142.34Z"/>
                <path class="cls-12" d="M54.73,129.7c0-2.08-2.09-3.77-4.67-3.77s-4.66,1.69-4.66,3.77v0h0v11.65h9.33V129.72h0Z"/>
                <path class="cls-15" d="M54,129.93c0-1.82-1.76-3.3-3.94-3.3s-3.93,1.48-3.93,3.3v0h0v10.71H54V130h0Z"/>
                <rect class="cls-12" x="49.88" y="126.03" width="0.35" height="15.23"/>
                <rect class="cls-16" x="44.35" y="141.37" width="11.5" height="0.97"/>
                <rect class="cls-12" x="49.88" y="127.35" width="0.35" height="8.68" transform="translate(181.74 81.63) rotate(90)"/>
                <rect class="cls-12" x="49.88" y="131.84" width="0.35" height="8.68" transform="translate(186.24 86.13) rotate(90)"/>
              </g>
              <path class="cls-17" d="M54,131.65V130h0v0a3.37,3.37,0,0,0-2.5-3.07l-5.37,8.26v5.54h2.68C50.29,138.08,52.36,134.49,54,131.65Z"/>
            </g>
            <g>
              <g>
                <path class="cls-10" d="M68.24,142.34a2.79,2.79,0,1,1-2.79-2.79A2.79,2.79,0,0,1,68.24,142.34Z"/>
                <path class="cls-12" d="M70.12,129.7c0-2.08-2.09-3.77-4.67-3.77s-4.67,1.69-4.67,3.77v0h0v11.65h9.34V129.72h0Z"/>
                <path class="cls-15" d="M69.39,129.93c0-1.82-1.77-3.3-3.94-3.3s-3.94,1.48-3.94,3.3v0h0v10.71h7.88V130h0Z"/>
                <rect class="cls-12" x="65.26" y="126.03" width="0.35" height="15.23"/>
                <rect class="cls-16" x="59.74" y="141.37" width="11.5" height="0.97"/>
                <rect class="cls-12" x="65.26" y="127.35" width="0.35" height="8.68" transform="translate(197.12 66.25) rotate(90)"/>
                <rect class="cls-12" x="65.26" y="131.84" width="0.35" height="8.68" transform="translate(201.62 70.74) rotate(90)"/>
              </g>
              <path class="cls-17" d="M69.39,131.65V130h0v0a3.37,3.37,0,0,0-2.51-3.07l-5.37,8.26v5.54h2.68C65.67,138.08,67.74,134.49,69.39,131.65Z"/>
            </g>
            <g>
              <g>
                <path class="cls-10" d="M52.85,170.9a2.79,2.79,0,1,1-2.79-2.79A2.79,2.79,0,0,1,52.85,170.9Z"/>
                <path class="cls-12" d="M54.73,158.26c0-2.08-2.09-3.77-4.67-3.77s-4.66,1.69-4.66,3.77h0v11.66h9.33V158.27h0Z"/>
                <path class="cls-15" d="M54,158.49c0-1.82-1.76-3.3-3.94-3.3s-3.93,1.48-3.93,3.3v0h0v10.71H54V158.51h0Z"/>
                <rect class="cls-12" x="49.88" y="154.59" width="0.35" height="15.23"/>
                <rect class="cls-16" x="44.35" y="169.93" width="11.5" height="0.97"/>
                <rect class="cls-12" x="49.88" y="155.91" width="0.35" height="8.68" transform="translate(210.3 110.19) rotate(90)"/>
                <rect class="cls-12" x="49.88" y="160.4" width="0.35" height="8.68" transform="translate(214.8 114.69) rotate(90)"/>
              </g>
              <path class="cls-17" d="M54,160.21v-1.7h0v0a3.37,3.37,0,0,0-2.5-3.07l-5.37,8.26v5.54h2.68C50.29,166.64,52.36,163.05,54,160.21Z"/>
            </g>
            <g>
              <g>
                <path class="cls-10" d="M68.24,170.9a2.79,2.79,0,1,1-2.79-2.79A2.79,2.79,0,0,1,68.24,170.9Z"/>
                <path class="cls-12" d="M70.12,158.26c0-2.08-2.09-3.77-4.67-3.77s-4.67,1.69-4.67,3.77h0v11.66h9.34V158.27h0Z"/>
                <path class="cls-15" d="M69.39,158.49c0-1.82-1.77-3.3-3.94-3.3s-3.94,1.48-3.94,3.3v0h0v10.71h7.88V158.51h0Z"/>
                <rect class="cls-12" x="65.26" y="154.59" width="0.35" height="15.23"/>
                <rect class="cls-16" x="59.74" y="169.93" width="11.5" height="0.97"/>
                <rect class="cls-12" x="65.26" y="155.91" width="0.35" height="8.68" transform="translate(225.68 94.81) rotate(90)"/>
                <rect class="cls-12" x="65.26" y="160.4" width="0.35" height="8.68" transform="translate(230.18 99.3) rotate(90)"/>
              </g>
              <path class="cls-17" d="M69.39,160.21v-1.7h0v0a3.37,3.37,0,0,0-2.51-3.07l-5.37,8.26v5.54h2.68C65.67,166.64,67.74,163.05,69.39,160.21Z"/>
            </g>
            <polygon class="cls-12" points="70.55 66.29 69.86 66.29 40.15 66.29 40.15 68.81 69.86 68.81 70.55 68.81 90.85 68.81 90.85 66.29 70.55 66.29"/>
            <g>
              <g>
                <path class="cls-10" d="M61.45,101.28a3.55,3.55,0,1,1-3.54-3.55A3.54,3.54,0,0,1,61.45,101.28Z"/>
                <path class="cls-12" d="M63.84,85.21c0-2.65-2.65-4.79-5.93-4.79S52,82.56,52,85.21v0h0v14.82H63.84V85.23h0Z"/>
                <path class="cls-15" d="M62.92,85.51c0-2.32-2.25-4.21-5-4.21s-5,1.89-5,4.21h0V99.14h10V85.52h0Z"/>
                <rect class="cls-12" x="57.67" y="80.54" width="0.44" height="19.37"/>
                <rect class="cls-16" x="50.65" y="100.05" width="14.62" height="1.23"/>
                <rect class="cls-12" x="57.67" y="82.21" width="0.44" height="11.03" transform="translate(145.63 29.84) rotate(90)"/>
                <rect class="cls-12" x="57.67" y="87.93" width="0.44" height="11.03" transform="translate(151.35 35.55) rotate(90)"/>
              </g>
              <path class="cls-17" d="M62.9,87.7V85.54h0v0a4.28,4.28,0,0,0-3.19-3.91L52.89,92.12v7H56.3Z"/>
            </g>
            <path class="cls-14" d="M73.33,66.29c.33,0-8-27.54-8-27.54h8L87.55,66.29Z"/>
            <polygon class="cls-12" points="67.41 36.93 67.15 36.93 55.94 36.93 55.94 39.45 67.15 39.45 67.41 39.45 75.06 39.45 75.06 36.93 67.41 36.93"/>
            <polygon class="cls-10" points="65.5 5.52 65.5 5.5 56.87 36.93 61.79 36.93 65.75 36.93 65.75 36.94 74.13 36.94 65.5 5.52"/>
          </g>
          <polygon class="cls-10" points="228.9 110.57 228.9 85.03 86.27 85.03 78.81 110.57 136.06 110.57 228.9 110.57"/>
          <polygon class="cls-10" points="213.99 110.57 213.99 85.03 263.55 85.03 270.97 110.57 213.99 110.57 213.99 110.57"/>
          <rect class="cls-16" x="84.7" y="83.09" width="180.66" height="3.88"/>
          <rect class="cls-11" x="213.7" y="111.49" width="57.28" height="87.34" transform="translate(484.67 310.33) rotate(180)"/>
          <rect class="cls-11" x="78.8" y="111.49" width="57.28" height="87.34"/>
          <rect class="cls-11" x="136.08" y="113.02" width="77.92" height="85.81"/>
          <rect class="cls-6" x="2.29" y="198.33" width="348.58" height="0.94"/>
          <polygon class="cls-12" points="194.46 110.57 191.81 110.57 76.61 110.57 76.61 113.09 191.81 113.09 194.46 113.09 273.17 113.09 273.17 110.57 194.46 110.57"/>
          <polygon class="cls-13" points="213.72 183.69 213.72 192.31 137.8 192.31 137.8 183.69 78.8 183.69 78.8 198.4 270.97 198.4 270.97 183.69 213.72 183.69"/>
          <g>
            <rect class="cls-12" x="186.36" y="113.06" width="8.56" height="77.98"/>
            <rect class="cls-16" x="184.42" y="113.06" width="12.44" height="3.9"/>
            <rect class="cls-16" x="185.23" y="188.54" width="10.84" height="2.49"/>
            <rect class="cls-16" x="185.83" y="129.3" width="9.63" height="1.59"/>
            <rect class="cls-16" x="185.83" y="135.71" width="9.63" height="1.59"/>
            <rect class="cls-16" x="185.83" y="169.08" width="9.63" height="1.59"/>
            <rect class="cls-16" x="185.83" y="175.49" width="9.63" height="1.59"/>
          </g>
          <rect class="cls-14" x="121.08" y="113.26" width="10.1" height="69.23"/>
          <rect class="cls-14" x="218.94" y="113.26" width="10.1" height="69.23"/>
          <g>
            <rect class="cls-12" x="154.83" y="113.23" width="8.56" height="77.98"/>
            <rect class="cls-16" x="152.89" y="113.23" width="12.44" height="3.9"/>
            <rect class="cls-16" x="153.69" y="188.72" width="10.84" height="2.49"/>
            <rect class="cls-16" x="154.29" y="129.47" width="9.63" height="1.59"/>
            <rect class="cls-16" x="154.29" y="135.88" width="9.63" height="1.59"/>
            <rect class="cls-16" x="154.29" y="169.26" width="9.63" height="1.59"/>
            <rect class="cls-16" x="154.29" y="175.67" width="9.63" height="1.59"/>
          </g>
          <rect class="cls-16" x="121.82" y="194.32" width="106.35" height="4.08"/>
          <rect class="cls-12" x="126.03" y="190.31" width="97.92" height="4.01"/>
          <rect class="cls-16" x="76.6" y="182.48" width="55.18" height="3.41"/>
          <rect class="cls-16" x="218.2" y="182.48" width="55.18" height="3.41"/>
          <g>
            <path class="cls-10" d="M178.25,146.94a3.57,3.57,0,1,1-3.56-3.56A3.56,3.56,0,0,1,178.25,146.94Z"/>
            <path class="cls-12" d="M180.66,130.78c0-2.66-2.67-4.82-6-4.82s-6,2.16-6,4.82v0h0v14.9h11.94V130.8h0Z"/>
            <path class="cls-15" d="M179.73,131.08c0-2.33-2.26-4.22-5-4.22s-5,1.89-5,4.22v0h0v13.69h10.08V131.1h0Z"/>
            <rect class="cls-12" x="174.46" y="126.09" width="0.45" height="19.48"/>
            <rect class="cls-16" x="167.39" y="145.7" width="14.7" height="1.24"/>
            <rect class="cls-12" x="174.45" y="127.77" width="0.45" height="11.09" transform="translate(308 -41.36) rotate(90)"/>
            <rect class="cls-12" x="174.45" y="133.52" width="0.45" height="11.09" transform="translate(313.75 -35.61) rotate(90)"/>
          </g>
          <g>
            <g>
              <path class="cls-10" d="M90.18,142.34a2.8,2.8,0,1,1-2.8-2.79A2.79,2.79,0,0,1,90.18,142.34Z"/>
              <path class="cls-12" d="M92.05,129.7c0-2.08-2.09-3.77-4.66-3.77s-4.67,1.69-4.67,3.77v0h0v11.65h9.33V129.72h0Z"/>
              <path class="cls-15" d="M91.33,129.93c0-1.82-1.77-3.3-3.94-3.3s-3.94,1.48-3.94,3.3v0h0v10.71h7.88V130h0Z"/>
              <rect class="cls-12" x="87.2" y="126.03" width="0.35" height="15.23"/>
              <rect class="cls-16" x="81.68" y="141.37" width="11.5" height="0.97"/>
              <rect class="cls-12" x="87.2" y="127.35" width="0.35" height="8.68" transform="translate(219.06 44.31) rotate(90)"/>
              <rect class="cls-12" x="87.2" y="131.84" width="0.35" height="8.68" transform="translate(223.56 48.81) rotate(90)"/>
            </g>
            <path class="cls-17" d="M91.33,131.65V130h0v0a3.37,3.37,0,0,0-2.51-3.07l-5.37,8.26v5.54h2.68C87.61,138.08,89.68,134.49,91.33,131.65Z"/>
          </g>
          <g>
            <g>
              <path class="cls-10" d="M107,142.34a2.79,2.79,0,1,1-2.79-2.79A2.79,2.79,0,0,1,107,142.34Z"/>
              <path class="cls-12" d="M108.9,129.7c0-2.08-2.09-3.77-4.67-3.77s-4.67,1.69-4.67,3.77v0h0v11.65h9.34V129.72h0Z"/>
              <path class="cls-15" d="M108.17,129.93c0-1.82-1.76-3.3-3.94-3.3s-3.94,1.48-3.94,3.3v0h0v10.71h7.88V130h0Z"/>
              <rect class="cls-12" x="104.05" y="126.03" width="0.35" height="15.23"/>
              <rect class="cls-16" x="98.52" y="141.37" width="11.5" height="0.97"/>
              <rect class="cls-12" x="104.05" y="127.35" width="0.35" height="8.68" transform="translate(235.91 27.46) rotate(90)"/>
              <rect class="cls-12" x="104.05" y="131.84" width="0.35" height="8.68" transform="translate(240.41 31.96) rotate(90)"/>
            </g>
            <path class="cls-17" d="M108.17,131.65V130h0v0a3.37,3.37,0,0,0-2.51-3.07l-5.37,8.26v5.54H103C104.46,138.08,106.53,134.49,108.17,131.65Z"/>
          </g>
          <g>
            <g>
              <path class="cls-10" d="M123.87,142.34a2.8,2.8,0,1,1-2.79-2.79A2.79,2.79,0,0,1,123.87,142.34Z"/>
              <path class="cls-12" d="M125.75,129.7c0-2.08-2.09-3.77-4.67-3.77s-4.67,1.69-4.67,3.77v0h0v11.65h9.34V129.72h0Z"/>
              <path class="cls-15" d="M125,129.93c0-1.82-1.77-3.3-3.94-3.3s-3.94,1.48-3.94,3.3v0h0v10.71H125V130h0Z"/>
              <rect class="cls-12" x="120.89" y="126.03" width="0.35" height="15.23"/>
              <rect class="cls-16" x="115.37" y="141.37" width="11.5" height="0.97"/>
              <rect class="cls-12" x="120.89" y="127.35" width="0.35" height="8.68" transform="translate(252.75 10.62) rotate(90)"/>
              <rect class="cls-12" x="120.89" y="131.84" width="0.35" height="8.68" transform="translate(257.25 15.12) rotate(90)"/>
            </g>
            <path class="cls-17" d="M125,131.65V130h0v0a3.37,3.37,0,0,0-2.51-3.07l-5.37,8.26v5.54h2.68C121.3,138.08,123.37,134.49,125,131.65Z"/>
          </g>
          <g>
            <g>
              <path class="cls-10" d="M90.18,170.25a2.8,2.8,0,1,1-2.8-2.79A2.79,2.79,0,0,1,90.18,170.25Z"/>
              <path class="cls-12" d="M92.05,157.61c0-2.08-2.09-3.77-4.66-3.77s-4.67,1.69-4.67,3.77h0v11.66h9.33V157.62h0Z"/>
              <path class="cls-15" d="M91.33,157.84c0-1.82-1.77-3.3-3.94-3.3s-3.94,1.48-3.94,3.3v0h0v10.7h7.88v-10.7h0Z"/>
              <rect class="cls-12" x="87.2" y="153.94" width="0.35" height="15.23"/>
              <rect class="cls-16" x="81.68" y="169.28" width="11.5" height="0.97"/>
              <rect class="cls-12" x="87.2" y="155.26" width="0.35" height="8.68" transform="translate(246.97 72.22) rotate(90)"/>
              <rect class="cls-12" x="87.2" y="159.75" width="0.35" height="8.68" transform="translate(251.47 76.72) rotate(90)"/>
            </g>
            <path class="cls-17" d="M91.33,159.56v-1.7h0v0a3.39,3.39,0,0,0-2.51-3.08L83.45,163v5.53h2.68C87.61,166,89.68,162.4,91.33,159.56Z"/>
          </g>
          <g>
            <g>
              <path class="cls-10" d="M107,170.25a2.79,2.79,0,1,1-2.79-2.79A2.79,2.79,0,0,1,107,170.25Z"/>
              <path class="cls-12" d="M108.9,157.61c0-2.08-2.09-3.77-4.67-3.77s-4.67,1.69-4.67,3.77h0v11.66h9.34V157.62h0Z"/>
              <path class="cls-15" d="M108.17,157.84c0-1.82-1.76-3.3-3.94-3.3s-3.94,1.48-3.94,3.3v0h0v10.7h7.88v-10.7h0Z"/>
              <rect class="cls-12" x="104.05" y="153.94" width="0.35" height="15.23"/>
              <rect class="cls-16" x="98.52" y="169.28" width="11.5" height="0.97"/>
              <rect class="cls-12" x="104.05" y="155.26" width="0.35" height="8.68" transform="translate(263.82 55.37) rotate(90)"/>
              <rect class="cls-12" x="104.05" y="159.75" width="0.35" height="8.68" transform="translate(268.31 59.87) rotate(90)"/>
            </g>
            <path class="cls-17" d="M108.17,159.56v-1.7h0v0a3.39,3.39,0,0,0-2.51-3.08L100.29,163v5.53H103Z"/>
          </g>
          <g>
            <g>
              <path class="cls-10" d="M123.87,170.25a2.8,2.8,0,1,1-2.79-2.79A2.79,2.79,0,0,1,123.87,170.25Z"/>
              <path class="cls-12" d="M125.75,157.61c0-2.08-2.09-3.77-4.67-3.77s-4.67,1.69-4.67,3.77h0v11.66h9.34V157.62h0Z"/>
              <path class="cls-15" d="M125,157.84c0-1.82-1.77-3.3-3.94-3.3s-3.94,1.48-3.94,3.3v0h0v10.7H125v-10.7h0Z"/>
              <rect class="cls-12" x="120.89" y="153.94" width="0.35" height="15.23"/>
              <rect class="cls-16" x="115.37" y="169.28" width="11.5" height="0.97"/>
              <rect class="cls-12" x="120.89" y="155.26" width="0.35" height="8.68" transform="translate(280.66 38.53) rotate(90)"/>
              <rect class="cls-12" x="120.89" y="159.75" width="0.35" height="8.68" transform="translate(285.16 43.02) rotate(90)"/>
            </g>
            <path class="cls-17" d="M125,159.56v-1.7h0v0a3.39,3.39,0,0,0-2.51-3.08L117.14,163v5.53h2.68C121.3,166,123.37,162.4,125,159.56Z"/>
          </g>
          <g>
            <g>
              <path class="cls-10" d="M231.7,142.34a2.79,2.79,0,1,1-2.79-2.79A2.79,2.79,0,0,1,231.7,142.34Z"/>
              <path class="cls-12" d="M233.58,129.7c0-2.08-2.09-3.77-4.66-3.77s-4.67,1.69-4.67,3.77v0h0v11.65h9.33V129.72h0Z"/>
              <path class="cls-15" d="M232.85,129.93c0-1.82-1.76-3.3-3.93-3.3s-3.94,1.48-3.94,3.3v0h0v10.71h7.87V130h0Z"/>
              <rect class="cls-12" x="228.73" y="126.03" width="0.35" height="15.23"/>
              <rect class="cls-16" x="223.2" y="141.37" width="11.5" height="0.97"/>
              <rect class="cls-12" x="228.73" y="127.35" width="0.35" height="8.68" transform="translate(360.59 -97.22) rotate(90)"/>
              <rect class="cls-12" x="228.73" y="131.84" width="0.35" height="8.68" transform="translate(365.09 -92.72) rotate(90)"/>
            </g>
            <path class="cls-17" d="M232.85,131.65V130h0v0a3.37,3.37,0,0,0-2.5-3.07L225,135.12v5.54h2.68C229.14,138.08,231.21,134.49,232.85,131.65Z"/>
          </g>
          <g>
            <g>
              <path class="cls-10" d="M205.35,142.34a2.79,2.79,0,1,1-2.79-2.79A2.79,2.79,0,0,1,205.35,142.34Z"/>
              <path class="cls-12" d="M207.23,129.7c0-2.08-2.09-3.77-4.67-3.77s-4.66,1.69-4.66,3.77v0h0v11.65h9.33V129.72h0Z"/>
              <path class="cls-15" d="M206.5,129.93c0-1.82-1.76-3.3-3.94-3.3s-3.94,1.48-3.94,3.3v0h0v10.71h7.88V130h0Z"/>
              <rect class="cls-12" x="202.38" y="126.03" width="0.35" height="15.23"/>
              <rect class="cls-16" x="196.85" y="141.37" width="11.5" height="0.97"/>
              <rect class="cls-12" x="202.38" y="127.35" width="0.35" height="8.68" transform="translate(334.24 -70.87) rotate(90)"/>
              <rect class="cls-12" x="202.38" y="131.84" width="0.35" height="8.68" transform="translate(338.74 -66.37) rotate(90)"/>
            </g>
            <path class="cls-17" d="M206.5,131.65V130h0v0a3.37,3.37,0,0,0-2.51-3.07l-5.37,8.26v5.54h2.69C202.79,138.08,204.86,134.49,206.5,131.65Z"/>
          </g>
          <g>
            <g>
              <path class="cls-10" d="M205.35,171.3a2.79,2.79,0,1,1-2.79-2.79A2.79,2.79,0,0,1,205.35,171.3Z"/>
              <path class="cls-12" d="M207.23,158.66c0-2.08-2.09-3.77-4.67-3.77s-4.66,1.69-4.66,3.77v0h0v11.65h9.33V158.68h0Z"/>
              <path class="cls-15" d="M206.5,158.9c0-1.83-1.76-3.31-3.94-3.31s-3.94,1.48-3.94,3.31h0v10.71h7.88V158.91h0Z"/>
              <rect class="cls-12" x="202.38" y="154.99" width="0.35" height="15.23"/>
              <rect class="cls-16" x="196.85" y="170.33" width="11.5" height="0.97"/>
              <rect class="cls-12" x="202.38" y="156.31" width="0.35" height="8.68" transform="translate(363.2 -41.91) rotate(90)"/>
              <rect class="cls-12" x="202.38" y="160.81" width="0.35" height="8.68" transform="translate(367.7 -37.41) rotate(90)"/>
            </g>
            <path class="cls-17" d="M206.5,160.61v-1.7h0a3.37,3.37,0,0,0-2.51-3.08l-5.37,8.26v5.54h2.69C202.79,167,204.86,163.45,206.5,160.61Z"/>
          </g>
          <g>
            <g>
              <path class="cls-10" d="M149.84,142.34a2.79,2.79,0,1,1-2.79-2.79A2.79,2.79,0,0,1,149.84,142.34Z"/>
              <path class="cls-12" d="M151.72,129.7c0-2.08-2.09-3.77-4.67-3.77s-4.67,1.69-4.67,3.77v0h0v11.65h9.34V129.72h0Z"/>
              <path class="cls-15" d="M151,129.93c0-1.82-1.77-3.3-3.94-3.3s-3.94,1.48-3.94,3.3v0h0v10.71H151V130h0Z"/>
              <rect class="cls-12" x="146.86" y="126.03" width="0.35" height="15.23"/>
              <rect class="cls-16" x="141.34" y="141.37" width="11.5" height="0.97"/>
              <rect class="cls-12" x="146.86" y="127.35" width="0.35" height="8.68" transform="translate(278.72 -15.35) rotate(90)"/>
              <rect class="cls-12" x="146.86" y="131.84" width="0.35" height="8.68" transform="translate(283.22 -10.85) rotate(90)"/>
            </g>
            <path class="cls-17" d="M151,131.65V130h0v0a3.37,3.37,0,0,0-2.51-3.07l-5.37,8.26v5.54h2.68C147.27,138.08,149.34,134.49,151,131.65Z"/>
          </g>
          <g>
            <g>
              <path class="cls-10" d="M149.84,171.3a2.79,2.79,0,1,1-2.79-2.79A2.79,2.79,0,0,1,149.84,171.3Z"/>
              <path class="cls-12" d="M151.72,158.66c0-2.08-2.09-3.77-4.67-3.77s-4.67,1.69-4.67,3.77v0h0v11.65h9.34V158.68h0Z"/>
              <path class="cls-15" d="M151,158.9c0-1.83-1.77-3.31-3.94-3.31s-3.94,1.48-3.94,3.31h0v10.71H151V158.91h0Z"/>
              <rect class="cls-12" x="146.86" y="154.99" width="0.35" height="15.23"/>
              <rect class="cls-16" x="141.34" y="170.33" width="11.5" height="0.97"/>
              <rect class="cls-12" x="146.86" y="156.31" width="0.35" height="8.68" transform="translate(307.68 13.61) rotate(90)"/>
              <rect class="cls-12" x="146.86" y="160.81" width="0.35" height="8.68" transform="translate(312.18 18.11) rotate(90)"/>
            </g>
            <path class="cls-17" d="M151,160.61v-1.7h0a3.37,3.37,0,0,0-2.51-3.08l-5.37,8.26v5.54h2.68C147.27,167,149.34,163.45,151,160.61Z"/>
          </g>
          <g>
            <g>
              <path class="cls-10" d="M248.55,142.34a2.79,2.79,0,1,1-2.79-2.79A2.79,2.79,0,0,1,248.55,142.34Z"/>
              <path class="cls-12" d="M250.43,129.7c0-2.08-2.09-3.77-4.67-3.77s-4.67,1.69-4.67,3.77v0h0v11.65h9.34V129.72h0Z"/>
              <path class="cls-15" d="M249.7,129.93c0-1.82-1.76-3.3-3.94-3.3s-3.94,1.48-3.94,3.3v0h0v10.71h7.88V130h0Z"/>
              <rect class="cls-12" x="245.58" y="126.03" width="0.35" height="15.23"/>
              <rect class="cls-16" x="240.05" y="141.37" width="11.5" height="0.97"/>
              <rect class="cls-12" x="245.58" y="127.35" width="0.35" height="8.68" transform="translate(377.44 -114.07) rotate(90)"/>
              <rect class="cls-12" x="245.58" y="131.84" width="0.35" height="8.68" transform="translate(381.93 -109.57) rotate(90)"/>
            </g>
            <path class="cls-17" d="M249.7,131.65V130h0v0a3.37,3.37,0,0,0-2.51-3.07l-5.37,8.26v5.54h2.69C246,138.08,248.05,134.49,249.7,131.65Z"/>
          </g>
          <g>
            <g>
              <path class="cls-10" d="M265.4,142.34a2.8,2.8,0,1,1-2.8-2.79A2.79,2.79,0,0,1,265.4,142.34Z"/>
              <path class="cls-12" d="M267.27,129.7c0-2.08-2.09-3.77-4.66-3.77s-4.67,1.69-4.67,3.77v0h0v11.65h9.33V129.72h0Z"/>
              <path class="cls-15" d="M266.55,129.93c0-1.82-1.77-3.3-3.94-3.3s-3.94,1.48-3.94,3.3v0h0v10.71h7.88V130h0Z"/>
              <rect class="cls-12" x="262.42" y="126.03" width="0.35" height="15.23"/>
              <rect class="cls-16" x="256.9" y="141.37" width="11.5" height="0.97"/>
              <rect class="cls-12" x="262.42" y="127.35" width="0.35" height="8.68" transform="translate(394.28 -130.91) rotate(90)"/>
              <rect class="cls-12" x="262.42" y="131.84" width="0.35" height="8.68" transform="translate(398.78 -126.41) rotate(90)"/>
            </g>
            <path class="cls-17" d="M266.55,131.65V130h0v0a3.37,3.37,0,0,0-2.51-3.07l-5.37,8.26v5.54h2.68C262.83,138.08,264.9,134.49,266.55,131.65Z"/>
          </g>
          <g>
            <g>
              <path class="cls-10" d="M231.7,170.25a2.79,2.79,0,1,1-2.79-2.79A2.79,2.79,0,0,1,231.7,170.25Z"/>
              <path class="cls-12" d="M233.58,157.61c0-2.08-2.09-3.77-4.66-3.77s-4.67,1.69-4.67,3.77h0v11.66h9.33V157.62h0Z"/>
              <path class="cls-15" d="M232.85,157.84c0-1.82-1.76-3.3-3.93-3.3S225,156,225,157.84v0h0v10.7h7.87v-10.7h0Z"/>
              <rect class="cls-12" x="228.73" y="153.94" width="0.35" height="15.23"/>
              <rect class="cls-16" x="223.2" y="169.28" width="11.5" height="0.97"/>
              <rect class="cls-12" x="228.73" y="155.26" width="0.35" height="8.68" transform="translate(388.5 -69.31) rotate(90)"/>
              <rect class="cls-12" x="228.73" y="159.75" width="0.35" height="8.68" transform="translate(393 -64.81) rotate(90)"/>
            </g>
            <path class="cls-17" d="M232.85,159.56v-1.7h0v0a3.39,3.39,0,0,0-2.5-3.08L225,163v5.53h2.68Z"/>
          </g>
          <g>
            <g>
              <path class="cls-10" d="M248.55,170.25a2.79,2.79,0,1,1-2.79-2.79A2.79,2.79,0,0,1,248.55,170.25Z"/>
              <path class="cls-12" d="M250.43,157.61c0-2.08-2.09-3.77-4.67-3.77s-4.67,1.69-4.67,3.77h0v11.66h9.34V157.62h0Z"/>
              <path class="cls-15" d="M249.7,157.84c0-1.82-1.76-3.3-3.94-3.3s-3.94,1.48-3.94,3.3v0h0v10.7h7.88v-10.7h0Z"/>
              <rect class="cls-12" x="245.58" y="153.94" width="0.35" height="15.23"/>
              <rect class="cls-16" x="240.05" y="169.28" width="11.5" height="0.97"/>
              <rect class="cls-12" x="245.58" y="155.26" width="0.35" height="8.68" transform="translate(405.35 -86.16) rotate(90)"/>
              <rect class="cls-12" x="245.58" y="159.75" width="0.35" height="8.68" transform="translate(409.84 -81.66) rotate(90)"/>
            </g>
            <path class="cls-17" d="M249.7,159.56v-1.7h0v0a3.39,3.39,0,0,0-2.51-3.08L241.82,163v5.53h2.69C246,166,248.05,162.4,249.7,159.56Z"/>
          </g>
          <g>
            <g>
              <path class="cls-10" d="M265.4,170.25a2.8,2.8,0,1,1-2.8-2.79A2.79,2.79,0,0,1,265.4,170.25Z"/>
              <path class="cls-12" d="M267.27,157.61c0-2.08-2.09-3.77-4.66-3.77s-4.67,1.69-4.67,3.77h0v11.66h9.33V157.62h0Z"/>
              <path class="cls-15" d="M266.55,157.84c0-1.82-1.77-3.3-3.94-3.3s-3.94,1.48-3.94,3.3v0h0v10.7h7.88v-10.7h0Z"/>
              <rect class="cls-12" x="262.42" y="153.94" width="0.35" height="15.23"/>
              <rect class="cls-16" x="256.9" y="169.28" width="11.5" height="0.97"/>
              <rect class="cls-12" x="262.42" y="155.26" width="0.35" height="8.68" transform="translate(422.19 -103) rotate(90)"/>
              <rect class="cls-12" x="262.42" y="159.75" width="0.35" height="8.68" transform="translate(426.69 -98.5) rotate(90)"/>
            </g>
            <path class="cls-17" d="M266.55,159.56v-1.7h0v0a3.39,3.39,0,0,0-2.51-3.08L258.67,163v5.53h2.68C262.83,166,264.9,162.4,266.55,159.56Z"/>
          </g>
          <g>
            <path class="cls-12" d="M182.36,169.36a7.5,7.5,0,0,0-15,0v0h0v22.3h15v-22.3h0Z"/>
            <path class="cls-15" d="M181.19,169.81a6.33,6.33,0,0,0-12.65,0v0h0v20.48h12.65V169.84h0Z"/>
            <rect class="cls-12" x="174.52" y="162.82" width="0.74" height="28.49"/>
            <path class="cls-17" d="M168.54,190.3H170l8.74-25.5a6.31,6.31,0,0,0-3.86-1.31h-.31l-6,17.54Z"/>
            <path class="cls-17" d="M181.18,169.86h0v0a6.25,6.25,0,0,0-.83-3.13l-8.09,23.6h3.34L181.18,174Z"/>
          </g>
          <rect class="cls-11" x="140.55" y="72.86" width="67.96" height="37.59"/>
          <g>
            <path class="cls-10" d="M178.19,100.26a3.57,3.57,0,1,1-3.57-3.57A3.56,3.56,0,0,1,178.19,100.26Z"/>
            <path class="cls-12" d="M180.59,84.1c0-2.66-2.67-4.82-6-4.82s-6,2.16-6,4.82v0h0V99h11.93V84.12h0Z"/>
            <path class="cls-15" d="M179.66,84.4c0-2.34-2.26-4.23-5-4.23s-5,1.89-5,4.23h0V98.1h10.07V84.41h0Z"/>
            <rect class="cls-12" x="174.39" y="79.4" width="0.45" height="19.48"/>
            <rect class="cls-16" x="167.32" y="99.02" width="14.7" height="1.24"/>
            <rect class="cls-12" x="174.39" y="81.09" width="0.45" height="11.09" transform="translate(261.25 -87.98) rotate(90)"/>
            <rect class="cls-12" x="174.39" y="86.84" width="0.45" height="11.09" transform="translate(267 -82.23) rotate(90)"/>
          </g>
          <g>
            <path class="cls-10" d="M197,100.26a3.57,3.57,0,1,1-3.56-3.57A3.56,3.56,0,0,1,197,100.26Z"/>
            <path class="cls-12" d="M199.39,84.1c0-2.66-2.68-4.82-6-4.82s-6,2.16-6,4.82v0h0V99h11.94V84.12h0Z"/>
            <path class="cls-15" d="M198.45,84.4c0-2.34-2.25-4.23-5-4.23s-5,1.89-5,4.23h0V98.1h10.07V84.41h0Z"/>
            <rect class="cls-12" x="193.18" y="79.4" width="0.45" height="19.48"/>
            <rect class="cls-16" x="186.12" y="99.02" width="14.7" height="1.24"/>
            <rect class="cls-12" x="193.18" y="81.09" width="0.45" height="11.09" transform="translate(280.04 -106.77) rotate(90)"/>
            <rect class="cls-12" x="193.18" y="86.84" width="0.45" height="11.09" transform="translate(285.79 -101.02) rotate(90)"/>
          </g>
          <polygon class="cls-12" points="181.87 70.44 180.93 70.44 139.8 70.44 139.8 72.96 180.93 72.96 181.87 72.96 209.97 72.96 209.97 70.44 181.87 70.44"/>
          <g>
            <rect class="cls-12" x="130.78" y="113.06" width="8.56" height="77.98"/>
            <rect class="cls-16" x="128.84" y="113.06" width="12.44" height="3.9"/>
            <rect class="cls-16" x="129.64" y="188.54" width="10.84" height="2.49"/>
            <rect class="cls-16" x="130.25" y="129.3" width="9.63" height="1.59"/>
            <rect class="cls-16" x="130.25" y="135.71" width="9.63" height="1.59"/>
            <rect class="cls-16" x="130.25" y="169.08" width="9.63" height="1.59"/>
            <rect class="cls-16" x="130.25" y="175.49" width="9.63" height="1.59"/>
          </g>
          <g>
            <rect class="cls-12" x="210.41" y="113.23" width="8.56" height="77.98"/>
            <rect class="cls-16" x="208.47" y="113.23" width="12.44" height="3.9"/>
            <rect class="cls-16" x="209.27" y="188.72" width="10.84" height="2.49"/>
            <rect class="cls-16" x="209.87" y="129.47" width="9.63" height="1.59"/>
            <rect class="cls-16" x="209.87" y="135.88" width="9.63" height="1.59"/>
            <rect class="cls-16" x="209.87" y="169.26" width="9.63" height="1.59"/>
            <rect class="cls-16" x="209.87" y="175.67" width="9.63" height="1.59"/>
          </g>
          <g>
            <g>
              <path class="cls-10" d="M159.39,100.26a3.57,3.57,0,1,1-3.56-3.57A3.56,3.56,0,0,1,159.39,100.26Z"/>
              <path class="cls-12" d="M161.8,84.1c0-2.66-2.68-4.82-6-4.82s-6,2.16-6,4.82v0h0V99H161.8V84.12h0Z"/>
              <path class="cls-15" d="M160.86,84.4c0-2.34-2.25-4.23-5-4.23s-5,1.89-5,4.23h0V98.1h10.07V84.41h0Z"/>
              <rect class="cls-12" x="155.59" y="79.4" width="0.45" height="19.48"/>
              <rect class="cls-16" x="148.53" y="99.02" width="14.7" height="1.24"/>
              <rect class="cls-12" x="155.59" y="81.09" width="0.45" height="11.09" transform="translate(242.45 -69.18) rotate(90)"/>
              <rect class="cls-12" x="155.59" y="86.84" width="0.45" height="11.09" transform="translate(248.2 -63.43) rotate(90)"/>
            </g>
            <path class="cls-17" d="M160.84,86.61V84.43h0v0a4.3,4.3,0,0,0-3.2-3.93L150.78,91v7.07h3.43C156.1,94.83,158.74,90.24,160.84,86.61Z"/>
          </g>
          <path class="cls-17" d="M179.71,86.61V84.43h0v0a4.31,4.31,0,0,0-3.21-3.93L169.64,91v7.07h3.43C175,94.83,177.6,90.24,179.71,86.61Z"/>
          <path class="cls-17" d="M179.71,133.29v-2.17h0v0a4.3,4.3,0,0,0-3.21-3.93l-6.86,10.56v7.07h3.43C175,141.51,177.6,136.92,179.71,133.29Z"/>
          <path class="cls-17" d="M198.57,86.61V84.43h0v0a4.31,4.31,0,0,0-3.21-3.93L188.5,91v7.07h3.43Z"/>
          <path class="cls-18" d="M223.12,216.68c4.67,0,38.54-6.61,43.2-6.26,11.31.86,22.63,3.81,33.86,2.28,10.19-1.38,19.48-6.36,29.74-7.27,3.37-.29,6.83-.14,10.11-.9s9.85-5.26,9.85-5.26L5.62,199.2s2.45,6.42,8.92,7.79c30.44,6.49,89.34,1,120.53,3.44,8.37.66,20.67,5.53,29,6.25C173,217.45,218.54,216.68,223.12,216.68Z"/>
          <g>
            <rect class="cls-19" x="223.27" y="191.81" width="0.33" height="4.92"/>
            <rect class="cls-19" x="239.54" y="191.81" width="0.33" height="4.92"/>
            <g>
              <rect class="cls-20" x="222.13" y="191.13" width="18.87" height="0.98" rx="0.25"/>
              <rect class="cls-20" x="222.13" y="192.52" width="18.87" height="0.98" rx="0.25"/>
              <rect class="cls-20" x="222.13" y="193.91" width="18.87" height="0.98" rx="0.25"/>
            </g>
            <path class="cls-20" d="M222.32,196.35h18.5a.28.28,0,0,1,.28.28v.48a0,0,0,0,1,0,0H222a0,0,0,0,1,0,0v-.48A.28.28,0,0,1,222.32,196.35Z"/>
            <rect class="cls-19" x="221.84" y="197" width="19.43" height="0.34" rx="0.06"/>
            <path class="cls-21" d="M234.22,193.94c.26-.14,2.43-1.33,2.51-1.41s1.09-1.7,1.09-1.7l-.89-.2-.88,1.52-1.45,1.06s-.25.19-.41.29h-.12l-.22,0a1.48,1.48,0,0,0-.27,0l-.19,0-.14,0h-.09s-.07.05,0,.08a.31.31,0,0,0,.12,0c.1,0,.26,0,.26,0l-.26.18a3,3,0,0,0-.33.24c0,.05,0,.09,0,.08s.42-.21.42-.21.05,0,0,0-.36.22-.41.26-.06.09,0,.1a1.9,1.9,0,0,0,.43-.22s.05,0,.05,0-.3.18-.32.21a0,0,0,0,0,0,.07,2,2,0,0,0,.39-.21s0,0,0,0-.25.17-.26.21a0,0,0,0,0,0,0c.05,0,.27-.15.4-.2S234.21,193.94,234.22,193.94Z"/>
            <path class="cls-8" d="M236.85,190s-.2.07-.47.71-.44,1.28-.44,1.28l.67.53s.25-1.38.28-1.43S236.85,190,236.85,190Z"/>
            <path class="cls-22" d="M235.67,200.67l0,.53c0,.07.06.23.06.29,0,.23-1.09-.19-.85-.29,0,0,.14-.08.15-.16s0-.36,0-.36Z"/>
            <path class="cls-23" d="M234.91,201.19a2.58,2.58,0,0,0,.39.09c.13,0,.3-.13.4-.09s.09.44.09.44a9,9,0,0,1-1.75,0C233.89,201.58,234.39,201.36,234.91,201.19Z"/>
            <path class="cls-22" d="M233.82,200.67l0,.53c0,.07.06.23.06.29,0,.23-1.09-.19-.84-.29,0,0,.18,0,.19-.12s0-.49,0-.49Z"/>
            <path class="cls-23" d="M233.07,201.19a2.3,2.3,0,0,0,.39.09c.13,0,.3-.13.39-.09s.1.44.1.44a9.15,9.15,0,0,1-1.76,0C232,201.58,232.55,201.36,233.07,201.19Z"/>
            <path class="cls-10" d="M237.35,195.13h-2.6s-1.17,0-1.36.38-.2,5.22-.2,5.22a4.69,4.69,0,0,0,.65,0l.78-2.69a2.16,2.16,0,0,0,.07-.8l-.07-.72,1.08.05s1.21,0,1.61-.42S237.35,195.13,237.35,195.13Z"/>
            <path class="cls-24" d="M239.11,194.85l-2.79.17s-1.2.09-1.39.5a46.53,46.53,0,0,0,.06,5.22,5.61,5.61,0,0,0,.71,0s.33-2,.49-2.73a2.41,2.41,0,0,0,.05-.71l0-.63a24.78,24.78,0,0,0,3-.19C239.6,196.08,239.11,194.85,239.11,194.85Z"/>
            <path class="cls-23" d="M236.85,190a7.85,7.85,0,0,1,1.13-.11,2.92,2.92,0,0,1,.6,0c.22.06.63.11.6,1.06,0,.68,0,2.92,0,4.06h-2.79C236.64,192.73,236.48,190.08,236.85,190Z"/>
            <path class="cls-22" d="M237.65,189.05l.38.83s-.36.56-.67.56-.2-.39-.2-.39a2.42,2.42,0,0,0-.12-.73C236.93,189.09,237.65,189.05,237.65,189.05Z"/>
            <path class="cls-24" d="M237.59,189.37a1.66,1.66,0,0,1-.46.3,1.12,1.12,0,0,0-.09-.35c0-.11.08-.17.23-.21l.38-.06.08.16A.73.73,0,0,1,237.59,189.37Z"/>
            <g>
              <path class="cls-22" d="M237.52,187.69s.38,1,.17,1.36-.72.56-1,.37a1.77,1.77,0,0,1-.13-1.75C237,187.29,237.52,187.69,237.52,187.69Z"/>
              <path class="cls-25" d="M236.65,187.07a1.14,1.14,0,0,1,.68.23c.16,0,.37,0,.65.33a.86.86,0,0,1,0,1.16.69.69,0,0,0-.19.56l-.08-.13a.67.67,0,0,1-.1-.31.74.74,0,0,1,0-.21c0-.17-.2-.22-.29-.34s-.12-.31-.23-.46l-.12-.1a.58.58,0,0,0-.44,0C236.34,187.86,236.21,187.08,236.65,187.07Z"/>
              <path class="cls-22" d="M237.38,188.55c0,.13.11.22.18.21s.12-.13.09-.26-.1-.23-.18-.21S237.36,188.42,237.38,188.55Z"/>
            </g>
            <path class="cls-26" d="M237,188.94l-.41.06a.18.18,0,0,0,.21.14C237,189.11,237,188.94,237,188.94Z"/>
            <g>
              <path class="cls-21" d="M237.43,193.65s-.08-.07-.33-.19a.37.37,0,0,0-.18,0s-.14,0-.15,0,0,.06,0,.07h.11a.24.24,0,0,1,.07.12,1.84,1.84,0,0,1-.41.05h-.29s-.14,0-.14,0a.55.55,0,0,0,.25.1,2.16,2.16,0,0,1,.28,0s-.23.05-.23.05a.58.58,0,0,0-.15,0c-.07,0-.18,0-.18,0l.15.06.16,0a2.62,2.62,0,0,0,.27,0s0,0,0,0-.06,0-.15,0h-.31c-.11,0-.09.08,0,.09h.14c.18,0,.35,0,.35,0a1.45,1.45,0,0,1-.3,0s-.16.07,0,.08a1.29,1.29,0,0,0,.34,0,1.46,1.46,0,0,0,.35-.07l.33-.15Z"/>
              <path class="cls-21" d="M239.59,191.46l-.72.33s.23.63.25.71-1.19.86-1.69,1.15l.08.46.23-.13,1.66-.77s.62-.32.62-.45S239.59,191.46,239.59,191.46Z"/>
            </g>
            <path class="cls-8" d="M239.87,191.86a14.79,14.79,0,0,0-.82-1.75.56.56,0,0,0-.92,0c-.23.29.83,2.12.83,2.12Z"/>
            <g>
              <g>
                <path class="cls-22" d="M228.52,200.69l0,.52c0,.07-.05.23-.05.29,0,.22,1-.19.75-.29,0,0-.13-.08-.13-.16s0-.35,0-.35Z"/>
                <path class="cls-10" d="M229.18,201.21l-.34.08c-.12,0-.27-.13-.35-.09s-.09.43-.09.43a7.2,7.2,0,0,0,1.56,0C230.1,201.58,229.65,201.37,229.18,201.21Z"/>
                <path class="cls-22" d="M230.16,200.69l0,.52c0,.07,0,.23,0,.29,0,.22,1-.19.75-.29,0,0-.17,0-.18-.12s0-.48,0-.48Z"/>
                <path class="cls-10" d="M230.82,201.21l-.34.08c-.12,0-.27-.13-.35-.09s-.09.43-.09.43a7.2,7.2,0,0,0,1.56,0C231.74,201.58,231.29,201.37,230.82,201.21Z"/>
                <path class="cls-25" d="M227.05,195.15h2.3s1.05,0,1.21.37.13,5.44.13,5.44a3.57,3.57,0,0,1-.59.06l-.62-3a2.33,2.33,0,0,1-.07-.79l.06-.7-1-.09s-1,.12-1.39-.27S227.05,195.15,227.05,195.15Z"/>
                <path class="cls-8" d="M225.48,194.87,228,195s1.07.1,1.24.49-.11,5.48-.11,5.48a4.28,4.28,0,0,1-.62,0s-.25-2.33-.39-3.06a2.75,2.75,0,0,1-.05-.7l.09-.81a15.94,15.94,0,0,1-2.42-.15C225.34,195.92,225.48,194.87,225.48,194.87Z"/>
              </g>
              <g>
                <path class="cls-27" d="M231.07,192.44c0-.06-.3-.11-.31-.18s.4-.07.41-.13-.46,0-.45-.07.51-.16.46-.25-.51.17-.52.11.44-.2.43-.32-.74.34-.83.3.09-.36,0-.4-.26.65-.31.67a11.86,11.86,0,0,1-1.39.69c-.05-.12-.36-.75-.4-.86-.2.14-.43.17-.63.3a5.91,5.91,0,0,0,.77,1.33c.31.14,1.53-.87,1.78-1s.38-.12.55-.18S231.05,192.51,231.07,192.44Z"/>
                <path class="cls-25" d="M227.9,189.42a2.16,2.16,0,0,0-.2-1,.86.86,0,0,0-.78-.45c-1,0-1.11,1.29-1.73,1.79-.19.15-.41.27-.59.44a1.58,1.58,0,0,0,.25,2.25,1.47,1.47,0,0,0,1.62.29,1.6,1.6,0,0,0,.62-.67,9.58,9.58,0,0,0,.5-1.25A4.62,4.62,0,0,0,227.9,189.42Z"/>
                <path class="cls-10" d="M227.61,192.74a8.13,8.13,0,0,1-.92-1.07c-.19-.32.12-.11.45-.2.12,0,.09-.74.32-.51a10.55,10.55,0,0,1,.86,1Z"/>
                <path class="cls-24" d="M226.56,190.63s-.65-.13-.95.12.06,2.47.06,2.83a12,12,0,0,1-.21,1.41s.86,0,2.39,0c0,0,0-2.35,0-2.61a7.15,7.15,0,0,0-.39-1.46A3.58,3.58,0,0,0,226.56,190.63Z"/>
                <path class="cls-22" d="M226.56,189.62v0a5,5,0,0,1-.22.84c-.1.17.32.73.72.67.12,0-.1-.52-.09-.57s0-.24.07-.38l.05-.24.08-.39Z"/>
                <path class="cls-24" d="M226.55,189.67v0l.6,0-.08.39-.05.24a.57.57,0,0,1-.28-.14.8.8,0,0,1-.22-.32Z"/>
                <path class="cls-22" d="M227,188.27a.56.56,0,0,0-.46.19,1.06,1.06,0,0,0,.08,1.31c.44.39.87-.05.93-.5S227.6,188.25,227,188.27Z"/>
                <path class="cls-22" d="M227.64,189.26c0,.1-.14.16-.19.12s-.06-.14,0-.24.14-.15.2-.12S227.7,189.16,227.64,189.26Z"/>
                <path class="cls-25" d="M227,188.2s-.37.66-.64.69-.31.39-.31.39.1-.82.37-1A1,1,0,0,1,227,188.2Z"/>
                <path class="cls-22" d="M226.42,189.06c0,.12,0,.23-.1.24s-.16-.06-.18-.18,0-.23.1-.25S226.4,188.94,226.42,189.06Z"/>
                <path class="cls-26" d="M227.13,189.52l-.41,0a.17.17,0,0,0,.18.17C227.12,189.69,227.13,189.52,227.13,189.52Z"/>
                <path class="cls-26" d="M227.13,189.52l-.41,0a.17.17,0,0,0,.18.17C227.12,189.69,227.13,189.52,227.13,189.52Z"/>
                <path class="cls-22" d="M229.47,192.76c0-.07-.29-.12-.31-.18s.4-.08.42-.13-.46,0-.45-.07.5-.17.45-.25-.5.17-.52.11.44-.2.43-.33-.74.34-.82.31.09-.36,0-.41-.26.65-.31.68a10.91,10.91,0,0,1-1.4.68c0-.12-.36-.74-.39-.85-.2.14-.43.17-.64.3a6.6,6.6,0,0,0,.77,1.33c.32.14,1.54-.87,1.78-1s.38-.12.55-.17S229.45,192.82,229.47,192.76Z"/>
                <path class="cls-10" d="M225.85,192.72a8.78,8.78,0,0,1-.49-1.32c-.07-.37.25-.84.58-.81s.84,1.68.84,1.68Z"/>
              </g>
            </g>
            <rect class="cls-19" x="222.62" y="197.35" width="0.37" height="4.85"/>
            <rect class="cls-19" x="240.31" y="197.35" width="0.37" height="4.85"/>
          </g>
          <g>
            <rect class="cls-19" x="247.97" y="191.81" width="0.33" height="4.92"/>
            <rect class="cls-19" x="264.25" y="191.81" width="0.33" height="4.92"/>
            <g>
              <rect class="cls-20" x="246.84" y="191.13" width="18.87" height="0.98" rx="0.25"/>
              <rect class="cls-20" x="246.84" y="192.52" width="18.87" height="0.98" rx="0.25"/>
              <rect class="cls-20" x="246.84" y="193.91" width="18.87" height="0.98" rx="0.25"/>
            </g>
            <path class="cls-20" d="M247,196.35h18.5a.28.28,0,0,1,.28.28v.48a0,0,0,0,1,0,0H246.75a0,0,0,0,1,0,0v-.48A.28.28,0,0,1,247,196.35Z"/>
            <rect class="cls-19" x="246.54" y="197" width="19.43" height="0.34" rx="0.06"/>
            <rect class="cls-19" x="247.32" y="197.35" width="0.37" height="4.85"/>
            <rect class="cls-19" x="265.02" y="197.35" width="0.37" height="4.85"/>
          </g>
          <g>
            <rect class="cls-19" x="110.85" y="191.81" width="0.33" height="4.92"/>
            <rect class="cls-19" x="127.12" y="191.81" width="0.33" height="4.92"/>
            <g>
              <rect class="cls-20" x="109.71" y="191.13" width="18.87" height="0.98" rx="0.25"/>
              <rect class="cls-20" x="109.71" y="192.52" width="18.87" height="0.98" rx="0.25"/>
              <rect class="cls-20" x="109.71" y="193.91" width="18.87" height="0.98" rx="0.25"/>
            </g>
            <path class="cls-20" d="M109.9,196.35h18.5a.28.28,0,0,1,.28.28v.48a0,0,0,0,1,0,0H109.62a0,0,0,0,1,0,0v-.48A.28.28,0,0,1,109.9,196.35Z"/>
            <rect class="cls-19" x="109.41" y="197" width="19.43" height="0.34" rx="0.06"/>
            <rect class="cls-19" x="110.2" y="197.35" width="0.37" height="4.85"/>
            <rect class="cls-19" x="127.89" y="197.35" width="0.37" height="4.85"/>
          </g>
          <g>
            <rect class="cls-19" x="84.7" y="191.81" width="0.33" height="4.92"/>
            <rect class="cls-19" x="100.98" y="191.81" width="0.33" height="4.92"/>
            <g>
              <rect class="cls-20" x="83.57" y="191.13" width="18.87" height="0.98" rx="0.25"/>
              <rect class="cls-20" x="83.57" y="192.52" width="18.87" height="0.98" rx="0.25"/>
              <rect class="cls-20" x="83.57" y="193.91" width="18.87" height="0.98" rx="0.25"/>
            </g>
            <path class="cls-20" d="M83.75,196.35h18.5a.28.28,0,0,1,.28.28v.48a0,0,0,0,1,0,0H83.48a0,0,0,0,1,0,0v-.48A.28.28,0,0,1,83.75,196.35Z"/>
            <rect class="cls-19" x="83.27" y="197" width="19.43" height="0.34" rx="0.06"/>
            <rect class="cls-19" x="84.05" y="197.35" width="0.37" height="4.85"/>
            <rect class="cls-19" x="101.75" y="197.35" width="0.37" height="4.85"/>
          </g>
          <g>
            <g>
              <path class="cls-28" d="M157.51,195.8c.05-.12.79-2.44.79-2.44l-1.15.26-.52,1.8c0,.09-.85,2.26-1.13,3a.44.44,0,0,1-.33.28h0a2.1,2.1,0,0,0-.33.11l-.2.15-.16.12-.1,0a.07.07,0,0,0,0,.12.29.29,0,0,0,.16,0c.13,0,.29-.17.3-.15s-.18.32-.2.35a3.42,3.42,0,0,0-.25.47c0,.08,0,.11.06.08s.37-.48.37-.48,0-.06.05,0-.29.46-.32.53,0,.13,0,.11.38-.49.38-.49,0-.06.05,0-.24.38-.25.42,0,.09.09.06a2.21,2.21,0,0,0,.33-.45s0,0,0,0a2.83,2.83,0,0,0-.19.39,0,0,0,0,0,0,0c.08,0,.24-.33.35-.46S157.46,195.94,157.51,195.8Z"/>
              <path class="cls-28" d="M162.18,208.14s.25.24.25.33a3.84,3.84,0,0,1-.07,1.12c-.1.08-.4.15-.3.24a2.76,2.76,0,0,0,1,0c.11,0,.24-.85.28-1a1.88,1.88,0,0,0,.16-.71,1.18,1.18,0,0,0-.34-.31,1.69,1.69,0,0,1-.38-.4Z"/>
              <path class="cls-28" d="M159.64,208.7l.22.62a3.58,3.58,0,0,1,.08.43c0,.34-1.51-.28-1.17-.43a.38.38,0,0,0,.13-.24.75.75,0,0,0-.12-.39Z"/>
              <path class="cls-25" d="M157.27,197.15s-.11,1.11-.11,1.13c0,1.8-.36,5.31-.29,5.65.16.82,1.94,5,1.94,5l1-.11-1.26-5,.46-2,.66-4Z"/>
              <path class="cls-8" d="M160.5,198.13l.18,1.06.49,4.33,1.88,4.24s-.26.62-.65.71l-3-4.36-1.86-5.57.06-1.23Z"/>
              <path class="cls-9" d="M156.88,194.5l1.34.14s.06-1.1.06-1.62a4.78,4.78,0,0,0-.13-1.43,1.15,1.15,0,0,0-.68.41A5.34,5.34,0,0,0,156.88,194.5Z"/>
              <path class="cls-29" d="M157.54,192.91c0,.19-.54,5.44-.54,5.44,2.43,1.17,3.77.21,3.77.21s-.08-3.68,0-4.19a7.54,7.54,0,0,0-.07-2.59,4.85,4.85,0,0,0-.94-.2,8.89,8.89,0,0,0-1.64,0A2.62,2.62,0,0,0,157.54,192.91Z"/>
              <path class="cls-25" d="M163.13,207.87a6.91,6.91,0,0,1-.79,1.67c-.06,0-.34.07-.39.19a.47.47,0,0,0,0,.17h1.17s.15-.71.21-1a5,5,0,0,0,.28-.83A2.15,2.15,0,0,0,163.13,207.87Z"/>
              <path class="cls-25" d="M160,209.86l-.18-.55a1.38,1.38,0,0,1-.54.13,4.27,4.27,0,0,1-.54-.13c-.73.24-1.32.36-1.21.55H160Z"/>
              <path class="cls-28" d="M159.45,190.5l.18,1.09s-.66,1.39-1,1.27-.12-1.29-.12-1.29a3,3,0,0,0,.12-1C158.53,190.29,159.45,190.5,159.45,190.5Z"/>
              <path class="cls-30" d="M158.58,190.61c-.05-.32.87-.11.87-.11l0,.09a.49.49,0,0,1-.1.16,1.27,1.27,0,0,1-.81.35A1.66,1.66,0,0,0,158.58,190.61Z"/>
              <path class="cls-28" d="M159.6,188.89s.21,1.3-.14,1.65-1,.48-1.26.2a2,2,0,0,1,.28-2.08C159,188.29,159.6,188.89,159.6,188.89Z"/>
              <path class="cls-5" d="M159.47,188.39a1.08,1.08,0,0,1,.42,1.92.8.8,0,0,0-.37.61l-.06-.17a.78.78,0,0,1-.05-.4.86.86,0,0,1,.06-.23c.09-.19-.2-.32-.28-.47a6.18,6.18,0,0,0-.16-.6l-.12-.15a.79.79,0,0,0-.53-.15C158.12,188.81,158.44,187.58,159.47,188.39Z"/>
              <path class="cls-28" d="M159.21,189.88c0,.16.07.29.17.29s.17-.13.18-.29-.08-.29-.17-.29S159.21,189.72,159.21,189.88Z"/>
              <path class="cls-28" d="M162.23,194l-1,.7.66,1.05a15.48,15.48,0,0,1-1.81,1.39l-.28.17-.12.07a1.1,1.1,0,0,0-.26,0c-.09,0-.27,0-.31.08s-.2.24-.23.26a.41.41,0,0,0,0,.09,1.46,1.46,0,0,0-.23.21c0,.05,0,.17.08.19s0,0,0,0a.16.16,0,0,0,0,.12.11.11,0,0,0,.12,0h0s0,.06.06.09a.1.1,0,0,0,.14,0s0,.17.19.08l.19-.11a.85.85,0,0,0,.16-.07l.34-.24s0-.09.05-.09l.16-.15s.1-.1.17-.16l.28-.13h0c1.34-.63,2.66-1.21,2.59-1.7A9.09,9.09,0,0,0,162.23,194Z"/>
              <path class="cls-29" d="M162.44,194l-1.15.78a12.86,12.86,0,0,0-1-1.32c-.44-.43.16-1.75.44-1.68C161.36,192,162.44,194,162.44,194Z"/>
              <path class="cls-26" d="M158.19,190.18l.58,0a.26.26,0,0,1-.29.2C158.17,190.41,158.19,190.18,158.19,190.18Z"/>
            </g>
            <g>
              <path class="cls-22" d="M150,207.88a6.68,6.68,0,0,0,0,1.09,1,1,0,0,0,0,.14,1.74,1.74,0,0,1-.09.61h-1.89c-.1,0,0-.07.05-.13a4.68,4.68,0,0,1,.68-.36l.17-.1a1.55,1.55,0,0,0,.28-.24,2.6,2.6,0,0,0,.16-.88Z"/>
              <path class="cls-10" d="M149,209.14a1.76,1.76,0,0,0,1.08,0c.05.15.15.66.09.66-.47,0-.87.09-2.23.07-.05,0,0-.17,0-.2A7.69,7.69,0,0,1,149,209.14Z"/>
              <path class="cls-9" d="M152.4,198A6.14,6.14,0,0,1,152,200c-.33.74-1.91,2.56-2.33,3.63a9,9,0,0,1,.46,2.1c0,.75,0,2.75,0,2.75l-.84,0-1.12-5.14,1.68-5.54.76-1.35Z"/>
              <path class="cls-22" d="M156,206.7a7.3,7.3,0,0,0,.75.89c.13.1.46.23.5.39a12.1,12.1,0,0,1-1.52,1.58c-.08.07-.07,0-.05-.14a5.92,5.92,0,0,1,.29-.77,1.45,1.45,0,0,0,.12-.58c0-.21-.49-.81-.49-.81Z"/>
              <path class="cls-10" d="M156.06,208.45a1.83,1.83,0,0,0,.84-.78c.15.09.54.27.51.32a7.68,7.68,0,0,1-1.66,1.83s-.2-.16-.2-.22A10.6,10.6,0,0,1,156.06,208.45Z"/>
              <path class="cls-29" d="M152.34,197.27a6.32,6.32,0,0,1,.81,1.81c.15.79-.1,3.19.16,4.3a9.5,9.5,0,0,1,1.59,1.46c.41.64,1.58,2.24,1.58,2.24l-.68.51L151.94,204l-1.56-4.78-.42-1.59Z"/>
              <path class="cls-21" d="M150.38,195.73c0-.13.42-2.6.42-2.6l-1.12.44-.25,1.91c0,.09-.51,2.43-.68,3.19a.5.5,0,0,1-.29.33h0a1,1,0,0,0-.32.17,1.53,1.53,0,0,0-.18.18l-.14.14s-.06,0-.09.06a.07.07,0,0,0,0,.12.24.24,0,0,0,.16,0c.12-.06.27-.22.28-.2s-.14.36-.15.4-.17.43-.18.51.05.11.08.07.3-.55.3-.55,0-.06.05,0-.23.51-.25.59,0,.14.07.11.31-.56.31-.56,0-.06.05,0-.19.42-.19.47a.06.06,0,0,0,.1.05,2.91,2.91,0,0,0,.27-.52s0,0,0,0a3.68,3.68,0,0,0-.13.43,0,0,0,0,0,.05,0c.08,0,.19-.37.28-.52S150.35,195.87,150.38,195.73Z"/>
              <path class="cls-5" d="M149.91,190.71a3.41,3.41,0,0,1,.3-1.6,1.35,1.35,0,0,1,1.21-.69c1.51,0,1.7,2,2.66,2.77.29.23.62.42.89.68,1,.94.57,2.67-.37,3.5a2.28,2.28,0,0,1-2.49.45,2.56,2.56,0,0,1-1-1,14.73,14.73,0,0,1-.76-1.94A7.34,7.34,0,0,1,149.91,190.71Z"/>
              <path class="cls-27" d="M154.68,199s-.5-2.13-.7-2.6-1-2.66-1-2.66l1-.22s.65,1.71,1,2.48a8.58,8.58,0,0,1,.19,2.6l0,.34h0s0,.09,0,.09,0,.16.05.17l0,.08a3,3,0,0,1,0,.33.53.53,0,0,1,0,.15v.18c0,.13-.13.1-.13.1s0,.1-.05.11a.26.26,0,0,1-.09,0v0a.07.07,0,0,1-.07.08.12.12,0,0,1-.1,0s0,0,0,0a.17.17,0,0,1-.17,0,1.4,1.4,0,0,1-.06-.24s0-.05,0-.08-.1-.22-.11-.26.06-.18.07-.26a.9.9,0,0,1,.11-.24s0-.06,0-.11Z"/>
              <path class="cls-25" d="M149.67,193.37c.47-1.43,1-1.37,1-1.37l-.4,3c-.3-.08-.67-.26-1-.34A10.63,10.63,0,0,1,149.67,193.37Z"/>
              <path class="cls-8" d="M151.87,191.74a1.87,1.87,0,0,1,1.21.32c.34.38-.76,3.34-.83,3.82a6.91,6.91,0,0,0,.32,1.74s-2,.42-2.62,0c0,0-.06-3.43,0-3.77a9.41,9.41,0,0,1,.71-1.86A4.69,4.69,0,0,1,151.87,191.74Z"/>
              <path class="cls-22" d="M151.58,190.58v.07a6.73,6.73,0,0,0,.29,1.09c.12.23-.42,1-.93.88-.16,0,.13-.68.11-.74s-.06-.32-.1-.5l-.06-.31c-.05-.28-.1-.51-.1-.51Z"/>
              <path class="cls-24" d="M151.59,190.65v-.07l-.78,0s0,.23.1.51l.06.31a.73.73,0,0,0,.37-.19.89.89,0,0,0,.28-.42S151.6,190.68,151.59,190.65Z"/>
              <path class="cls-22" d="M151.06,188.81a.69.69,0,0,1,.59.26,1.38,1.38,0,0,1-.09,1.71c-.57.5-1.13-.06-1.22-.66S150.23,188.79,151.06,188.81Z"/>
              <path class="cls-22" d="M150.17,190.11c.07.13.19.21.26.16s.08-.18,0-.31-.18-.21-.26-.17S150.11,190,150.17,190.11Z"/>
              <path class="cls-5" d="M151,188.72s.48.87.83.91.4.51.4.51-.13-1.07-.47-1.28A1.23,1.23,0,0,0,151,188.72Z"/>
              <path class="cls-26" d="M151.42,190.27l-.73,0a.32.32,0,0,0,.35.27C151.43,190.57,151.42,190.27,151.42,190.27Z"/>
              <path class="cls-8" d="M153.39,195a13,13,0,0,1-1.33-1.85c-.2-.49.1-1.24.57-1.3S154.3,194,154.3,194Z"/>
            </g>
          </g>
          <g>
            <path class="cls-22" d="M265.56,189c0-.08.39-.08.43-.16s-.49-.18-.5-.25.58.07.58,0-.6-.31-.51-.4.59.32.62.25-.51-.35-.47-.51.86.59,1,.56,0-.47.06-.51.21.81.27.85a19,19,0,0,0,1.67,1c.08-.14.64-.87.71-1,.22.22.6.14.83.34A12.34,12.34,0,0,1,269,191c-.42.11-2-1.27-2.3-1.54s-.45-.23-.65-.33S265.57,189.13,265.56,189Z"/>
            <path class="cls-29" d="M269.13,189.1a9.26,9.26,0,0,1,1-2,1,1,0,0,1,1.43.05c.24.42-1.32,2.37-1.32,2.37Z"/>
            <path class="cls-22" d="M271.25,188c-.62,0-.55-1.2-.55-1.2l-.13,0,.13,0a.51.51,0,0,0,.46-.43,1.63,1.63,0,0,0,0-.48c-.05-.29.75-.1.75-.1l.11.69a.48.48,0,0,0,.37.4S271.86,188,271.25,188Z"/>
            <path class="cls-27" d="M274.18,201.77s.22.22.23.3a3.82,3.82,0,0,1-.07,1c-.09.08-.36.13-.27.22a2.75,2.75,0,0,0,.89,0c.09,0,.21-.78.25-.89s.19-.53.14-.64a1,1,0,0,0-.31-.28,1.56,1.56,0,0,1-.34-.36Z"/>
            <path class="cls-22" d="M271.9,202.28l.2.56c0,.09.07.31.07.39,0,.3-1.36-.26-1.06-.4a.29.29,0,0,0,.13-.21.74.74,0,0,0-.12-.36Z"/>
            <g>
              <path class="cls-8" d="M269.76,191.86s-.24,1-.24,1c0,1.62-.18,4.82-.12,5.12.15.75,1.75,4.54,1.75,4.54l.87-.1-.6-4.07.83-2.81-.36-3.11Z"/>
              <path class="cls-25" d="M273.92,192.58l-.34,3.67,1.39,5.18s-.24.56-.59.64l-2.69-3.93-1.68-5,.06-1.12Z"/>
            </g>
            <path class="cls-9" d="M275,201.53s-.51,1.43-.71,1.5-.3.07-.35.18a.74.74,0,0,0,0,.15H275s.13-.64.19-.92a4,4,0,0,0,.25-.74A1.78,1.78,0,0,0,275,201.53Z"/>
            <path class="cls-9" d="M272.25,203.33l-.16-.5a1.41,1.41,0,0,1-.49.12l-.48-.12c-.66.22-1.19.32-1.09.5h2.22Z"/>
            <path class="cls-31" d="M271.19,185.91c-.05-.29.75-.1.75-.1v.08a.53.53,0,0,1-.08.15,1.07,1.07,0,0,1-.7.31A1.68,1.68,0,0,0,271.19,185.91Z"/>
            <g>
              <path class="cls-22" d="M272.07,184.35s.21,1.3-.09,1.62a.93.93,0,0,1-1.19.08,2,2,0,0,1,.31-1.91C271.57,183.81,272.07,184.35,272.07,184.35Z"/>
              <path class="cls-20" d="M271.28,183.51a1.21,1.21,0,0,1,.68.39c.17,0,.39.11.62.49a1,1,0,0,1-.26,1.25.72.72,0,0,0-.32.55L272,186a.9.9,0,0,1-.05-.36.71.71,0,0,1,.06-.22c.08-.17-.17-.28-.24-.43s-.06-.36-.14-.54l-.1-.13a.66.66,0,0,0-.47-.14C270.78,184.28,270.82,183.41,271.28,183.51Z"/>
              <path class="cls-22" d="M271.73,185.24c0,.15.07.26.15.27s.15-.12.15-.26-.06-.26-.14-.26S271.74,185.1,271.73,185.24Z"/>
            </g>
            <path class="cls-26" d="M271.23,185.66l-.41,0a.19.19,0,0,0,.18.18C271.22,185.83,271.23,185.66,271.23,185.66Z"/>
            <path class="cls-32" d="M270.22,187.34a2.11,2.11,0,0,1,.32-.49l.16,0s-.07,1.19.55,1.2,1.17-1.12,1.17-1.12l.44.11s.53.1.68.9.42,3.81.44,4.44c0,.45-.68.85-1.64,1a2.9,2.9,0,0,1-.9.09h-.27c-1.07,0-1.45-.32-1.58-.5l-.07,0v-.09A8,8,0,0,1,270.22,187.34Z"/>
            <path class="cls-22" d="M272.68,188.83l1.62,2.27c.31.43,1.17,2.16,1.2,2.22s-.43.92-.31,1,.21-.45.34-.4.58,1.16.64,1.1-.25-.69-.18-.73.34.64.47.61-.31-.62-.27-.67.49.5.56.38-.42-.49-.35-.53.48.22.52.13-.37-.17-.5-.39-.34-.3-.45-.7a11.49,11.49,0,0,0-.87-2.81c-.47-.71-1.45-2-1.45-2Z"/>
            <path class="cls-29" d="M274.8,189.51l-1.28.86a14.19,14.19,0,0,0-1.1-1.46c-.49-.48.17-1.95.49-1.87C273.6,187.23,274.8,189.51,274.8,189.51Z"/>
          </g>
          <g>
            <path class="cls-25" d="M194.57,194l.07.06a.09.09,0,0,0,.12,0L196,192.7a.09.09,0,0,0,0-.12l-.07-.06a.08.08,0,0,0-.12,0l-1.19,1.31A.09.09,0,0,0,194.57,194Z"/>
            <path class="cls-22" d="M190.54,192.89c.16-.13,1.39.41,1.37.6a18.93,18.93,0,0,0,.86,2l1.51-1.21h0a6.07,6.07,0,0,0,.17-.59c0-.09.26-.25.38-.22s-.1.17-.12.2.11.1.11.1.44-.24.45-.38.1-.44.19-.38,0,.24,0,.34c0-.11.06-.24.1-.25s.11.07.09.11a4.18,4.18,0,0,1-.16.58s-.74.62-.84.75-1.95,2.24-2.09,2.29-.56-.72-1-1.23S190,193.29,190.54,192.89Z"/>
            <path class="cls-27" d="M186.6,209.36s-.27.26-.27.36a4.18,4.18,0,0,0,.08,1.22c.11.1.43.17.33.28a3.34,3.34,0,0,1-1.08,0c-.12,0-.26-.94-.31-1.08s-.23-.64-.17-.78a1.2,1.2,0,0,1,.38-.34,1.71,1.71,0,0,0,.41-.44Z"/>
            <path class="cls-22" d="M189.38,210l-.24.68c0,.11-.09.38-.09.47,0,.37,1.66-.31,1.29-.47a.4.4,0,0,1-.15-.26.87.87,0,0,1,.14-.44Z"/>
            <g>
              <path class="cls-8" d="M192,197.29s.12,1.22.12,1.24c0,2,.39,5.83.31,6.2-.18.91-2.12,5.53-2.12,5.53l-1.06-.13,1.37-5.53-.5-2.22-.71-4.4Z"/>
              <path class="cls-25" d="M188.44,198.37l-.19,1.16-.55,4.76-2,4.65s.29.68.71.77l3.28-4.77,2-6.11-.07-1.36Z"/>
            </g>
            <path class="cls-33" d="M192.4,194.39l-1.46.15s-.07-1.2-.07-1.78a5.19,5.19,0,0,1,.14-1.57,1.3,1.3,0,0,1,.74.45A5.88,5.88,0,0,1,192.4,194.39Z"/>
            <path class="cls-24" d="M191.68,192.64c0,.21.59,6,.59,6-2.66,1.29-4.12.23-4.12.23s.08-4,0-4.59c-.07-.37-.15-2.79.08-2.85a5.64,5.64,0,0,1,1-.22,8.83,8.83,0,0,1,1.79,0A2.86,2.86,0,0,1,191.68,192.64Z"/>
            <path class="cls-20" d="M185.57,209.05a7.67,7.67,0,0,0,.86,1.84c.06,0,.37.08.43.21a.53.53,0,0,1,0,.18h-1.29l-.23-1.11a4.74,4.74,0,0,1-.3-.9A2.22,2.22,0,0,1,185.57,209.05Z"/>
            <path class="cls-20" d="M189,211.25l.19-.61a1.79,1.79,0,0,0,.59.15,5.74,5.74,0,0,0,.59-.15c.8.27,1.45.39,1.33.61H189Z"/>
            <path class="cls-22" d="M192.6,196.84a.05.05,0,0,0,0,0,2,2,0,0,1,.14-1.29s0-.09-.08-.18c-.21.16-.31.58-.27,1.27,0,0,0,.08,0,.14S192.57,196.86,192.6,196.84Z"/>
            <path class="cls-21" d="M185.52,198.67a0,0,0,0,1,0,0c0-.4.36-3.75.42-3.89s1.53-2.26,1.53-2.26l.73,1-1.43,1.9c0,.12-.54,2.38-.54,2.38s-.11.42-.15.66l.06.17.15.24a1.88,1.88,0,0,1,.18.33,1.31,1.31,0,0,1,.06.25,1.08,1.08,0,0,1,0,.19.27.27,0,0,0,.05.11.06.06,0,0,1-.08.09s-.09-.08-.11-.12-.11-.34-.13-.33-.08.38-.09.42a5.07,5.07,0,0,1-.12.55c0,.07-.1.06-.11,0a5.9,5.9,0,0,1,0-.63s0-.08,0-.06a5.15,5.15,0,0,0-.11.65c0,.08-.08.12-.12,0a2.23,2.23,0,0,1,0-.65s0-.07,0-.06-.06.47-.09.51-.08,0-.11,0a2.54,2.54,0,0,1,0-.59s0,0,0,0-.08.4-.12.44a0,0,0,0,1-.06,0c-.07-.05,0-.42,0-.61a5.25,5.25,0,0,0,.06-.61Z"/>
            <path class="cls-24" d="M186.31,193.84l1.27.85a14.06,14.06,0,0,1,1.09-1.44c.48-.48-.17-1.93-.48-1.85C187.5,191.59,186.31,193.84,186.31,193.84Z"/>
            <path class="cls-22" d="M189.33,189.93l-.19,1.25s.69,1.49,1.1,1.36.14-1.42.14-1.42a3.79,3.79,0,0,1-.14-1.06C190.3,189.7,189.33,189.93,189.33,189.93Z"/>
            <path class="cls-24" d="M190.24,190.06c.06-.36-.91-.13-.91-.13l0,.11a.71.71,0,0,0,.11.17,1.29,1.29,0,0,0,.85.39A2.07,2.07,0,0,1,190.24,190.06Z"/>
            <g>
              <path class="cls-22" d="M189.17,188.16s-.22,1.43.14,1.82,1.08.53,1.34.22a2.3,2.3,0,0,0-.3-2.3C189.78,187.5,189.17,188.16,189.17,188.16Z"/>
              <path class="cls-6" d="M190.13,187.14a1.64,1.64,0,0,0-.83.47c-.2,0-.47.13-.75.6a1.18,1.18,0,0,0,.31,1.52.93.93,0,0,1,.4.67l.06-.19a.94.94,0,0,0,.05-.44,1.1,1.1,0,0,0-.06-.26c-.1-.21.2-.35.29-.52s.07-.44.17-.66l.12-.16a.77.77,0,0,1,.57-.16C190.74,188.07,190.7,187,190.13,187.14Z"/>
              <path class="cls-22" d="M189.58,189.25c0,.17-.08.32-.18.32s-.18-.14-.18-.32.07-.32.17-.32S189.58,189.07,189.58,189.25Z"/>
            </g>
            <path class="cls-26" d="M190.17,189.65l.56,0a.25.25,0,0,1-.25.23C190.19,189.88,190.17,189.65,190.17,189.65Z"/>
          </g>
          <g>
            <path class="cls-28" d="M204.34,192.88s1.16,2.54,1.41,3a20.54,20.54,0,0,1,.72,2c0,.07-.59.89-.47.93s.27-.41.39-.34.41,1.23.48,1.18-.14-.71-.07-.74.24.68.38.67-.22-.66-.18-.71.42.58.51.46-.35-.54-.27-.57.44.29.49.21-.34-.23-.44-.46-.29-.35-.34-.76a9.92,9.92,0,0,0-.45-2.68l-1.19-2.5Z"/>
            <path class="cls-25" d="M204.71,190.05a3.81,3.81,0,0,0-.35-1.84,1.53,1.53,0,0,0-1.37-.78c-1.73,0-2,2.28-3,3.16-.34.27-.71.49-1,.78-1.17,1.07-.64,3.06.43,4a2.59,2.59,0,0,0,2.84.51,2.81,2.81,0,0,0,1.1-1.19,15.73,15.73,0,0,0,.87-2.22A8.1,8.1,0,0,0,204.71,190.05Z"/>
            <path class="cls-28" d="M198.55,187.6c.08,0,.28.36.38.35s-.07-.57,0-.62.21.62.28.58,0-.75.15-.71,0,.75.06.75.09-.68.27-.72-.16,1.15-.08,1.25.45-.27.55-.2-.72.62-.73.69-.18,1.65-.16,2.17c.18,0,1.2.21,1.37.21-.11.33.16.67.07,1a13.63,13.63,0,0,1-2.37-.3c-.32-.37.27-2.66.41-3.06s0-.57,0-.82S198.47,187.66,198.55,187.6Z"/>
            <g>
              <path class="cls-28" d="M201.19,211.08a3.59,3.59,0,0,1,.71-.4l.18-.11a1.33,1.33,0,0,0,.29-.25,1.49,1.49,0,0,0,.14-.62c0-.52-.81-8.9-1-9.8a8.8,8.8,0,0,1,.09-2.37l.58-.22,1.11,3.85-.09,2.92a7.49,7.49,0,0,1,.3,1.35c0,.5-.38,4.59-.38,4.59h0a3.41,3.41,0,0,0,0,.37c0,.15.2.46.12.61a.38.38,0,0,1-.16.18l-2,0C201,211.21,201.1,211.14,201.19,211.08Z"/>
              <path class="cls-28" d="M204.21,197.23a6.74,6.74,0,0,1,.86,1.91c.16.87-.12,3.52.19,4.65a15.14,15.14,0,0,1,.93,2.35c.09.79.44,3.08.44,3.08h0a1.93,1.93,0,0,0,.24.68,2.27,2.27,0,0,1,.26.34,1,1,0,0,1,0,.79c0,.1,0,.09-.1.13a.65.65,0,0,1-.77-.36,2.15,2.15,0,0,1-.15-.67,2.85,2.85,0,0,0-.11-.7h0L203.75,204l-1.6-4.68-.41-2.41Z"/>
              <path class="cls-25" d="M206.16,210.64a1,1,0,0,0,1-.4,1.06,1.06,0,0,1,.09.79c-.08.17-.31.16-.49.17a.48.48,0,0,1-.44-.27A2,2,0,0,1,206.16,210.64Z"/>
              <path class="cls-25" d="M202.08,210.57a1.78,1.78,0,0,0,1.14,0,1,1,0,0,1,.09.47c-.05.14-.12.18-.18.18l-2.13,0a.06.06,0,0,1-.05-.1A10.31,10.31,0,0,1,202.08,210.57Z"/>
              <path class="cls-25" d="M203.76,203.9h-.52a8.16,8.16,0,0,1-1.43-.06c-.19-1.91-.26-3.65-.33-4a7.9,7.9,0,0,1,.15-2.41l0-.35.09-.22,2.57.32a6.6,6.6,0,0,1,.89,1.91c.17.86-.13,3.52.2,4.65C205.35,203.73,204.62,203.84,203.76,203.9Z"/>
            </g>
            <path class="cls-34" d="M200.26,191.21a10.56,10.56,0,0,1,2.5,0,1.12,1.12,0,0,1,.66,1.46c-.3.45-3-.15-3-.15Z"/>
            <path class="cls-20" d="M203.66,191s1-.06,1.33.34-.84,3.56-.91,4.06a7.08,7.08,0,0,0,.35,1.86s-2.24.44-2.87,0c0,0-.12-3.69-.05-4a10.21,10.21,0,0,1,.82-2A5.75,5.75,0,0,1,203.66,191Z"/>
            <path class="cls-28" d="M203.34,189.8v.07a7.65,7.65,0,0,0,.32,1.16c.13.25-.46,1-1,.93-.17,0,.14-.71.12-.79s-.06-.33-.1-.52l-.07-.33-.11-.54Z"/>
            <path class="cls-30" d="M203.35,189.87v-.07l-.85,0,.11.54c0,.1,0,.22.07.32a.77.77,0,0,0,.4-.19,1,1,0,0,0,.31-.45A1.3,1.3,0,0,0,203.35,189.87Z"/>
            <path class="cls-28" d="M202.77,187.92a.76.76,0,0,1,.65.27,1.44,1.44,0,0,1-.1,1.82c-.63.53-1.24-.07-1.34-.71S201.86,187.89,202.77,187.92Z"/>
            <path class="cls-28" d="M201.8,189.3c.07.14.2.21.28.17s.08-.2,0-.34-.2-.22-.28-.17S201.73,189.15,201.8,189.3Z"/>
            <path class="cls-25" d="M202.72,187.81s.54.93.92,1,.44.54.44.54-.14-1.14-.52-1.36A1.44,1.44,0,0,0,202.72,187.81Z"/>
            <path class="cls-28" d="M203.54,189c0,.16,0,.31.14.34s.22-.1.25-.26,0-.32-.14-.34S203.57,188.85,203.54,189Z"/>
            <path class="cls-26" d="M203,189.45l-.54.08a.23.23,0,0,0,.28.17C203.05,189.67,203,189.45,203,189.45Z"/>
            <path class="cls-20" d="M204.94,194.67a10.42,10.42,0,0,1-1.17-2.2c-.09-.59.44-1.32,1-1.26s1.47,2.75,1.47,2.75Z"/>
          </g>
          <g>
            <path class="cls-35" d="M119.11,194.32s-2.64.26-2.86.37a1.35,1.35,0,0,0-.89,1.13c-.07.75,2,0,2.13-.06s1.63-.86,1.62-.89A5,5,0,0,1,119.11,194.32Z"/>
            <path class="cls-35" d="M112.36,194.32s2.63.26,2.86.37,1.17-.34,1.24.42-2.37.69-2.49.65-1.63-.86-1.61-.89S112.36,194.32,112.36,194.32Z"/>
            <path class="cls-36" d="M116,196.39a.12.12,0,0,1,.11-.12.31.31,0,0,0,.17,0,.72.72,0,0,1,.53-.1c.22.05.78,0,1,.09s.42.39.24.5a2.26,2.26,0,0,1-1,.2l-.9-.08s-.1-.05-.1-.1Z"/>
            <path class="cls-21" d="M116,196.34l-.51-.29-.09.59.69.2a3.31,3.31,0,0,0,0-.42Z"/>
            <path class="cls-37" d="M111.23,195s-.1-.49.16-.63a1.69,1.69,0,0,1,1.31.12l3.55,1.69a3.55,3.55,0,0,1-.33.71l-3.35-1C111.94,195.69,111.41,195.69,111.23,195Z"/>
            <path class="cls-36" d="M114.71,196.41a.11.11,0,0,0-.11-.11c-.07,0-.14,0-.17-.05a.79.79,0,0,0-.53-.09c-.22,0-.78-.06-1,.09s-.42.38-.25.5a2.49,2.49,0,0,0,1,.2c.13,0,.68-.07.89-.09.05,0,.11,0,.11-.09Z"/>
            <path class="cls-21" d="M114.7,196.37l.51-.29.12.72-.72.06s0-.39,0-.41Z"/>
            <path class="cls-38" d="M120,195s.1-.49-.16-.63a1.67,1.67,0,0,0-1.3.12c-.51.23-3.55,1.69-3.55,1.69a3.36,3.36,0,0,0,.32.71l3.36-1C119.28,195.69,119.81,195.69,120,195Z"/>
            <g>
              <path class="cls-24" d="M117.12,190.56a1.14,1.14,0,0,0-.79-1.24,1.23,1.23,0,0,0-.43-.82c-.48-.38-1.31-.53-1.58,0a1.14,1.14,0,0,0-.5,1.27,2.08,2.08,0,0,0-.7,2.17c0,.47.37.65.81.8.1,0,1.47.47,1.45-.31a.93.93,0,0,0,1.39.33A1.3,1.3,0,0,0,117.12,190.56Z"/>
              <path class="cls-22" d="M110.9,191.25c0-.07.33,0,.36-.1s-.39-.18-.39-.24.47.09.47,0-.47-.29-.39-.36.46.3.49.24-.39-.31-.35-.44.66.53.76.51,0-.38.07-.41.11.72.15.76a14.44,14.44,0,0,0,1.29,1c.08-.11.42-.46.49-.57.16.19.25.33.42.51a4.81,4.81,0,0,1-.81,1c-.35.06-1.42-1.32-1.62-1.55s-.35-.22-.51-.31S110.91,191.32,110.9,191.25Z"/>
              <path class="cls-22" d="M119.76,190.92c0-.07-.32,0-.36-.1s.39-.17.39-.24-.47.09-.47,0,.47-.29.39-.36-.46.3-.49.24.39-.31.35-.43-.66.52-.75.51,0-.39-.08-.42-.1.72-.15.76a14.44,14.44,0,0,1-1.29,1c-.08-.11-.42-.46-.49-.57-.16.2-.25.33-.42.51a5.17,5.17,0,0,0,.81,1c.35.07,1.42-1.32,1.62-1.55s.35-.21.51-.31S119.75,191,119.76,190.92Z"/>
              <path class="cls-9" d="M117.21,191.62l-.57.69a7.68,7.68,0,0,0-.85-.63c-.35-.19-.22-1.11,0-1.11C116.18,190.56,117.21,191.62,117.21,191.62Z"/>
              <path class="cls-29" d="M114.27,190.72a7.38,7.38,0,0,1,1.24-.15.91.91,0,0,0,.16,0,1.24,1.24,0,0,1,.81.7,3.09,3.09,0,0,1,.13,1.82,11.47,11.47,0,0,0,.14,1.62,2.07,2.07,0,0,1-2.28.15l.35-1.51a5.1,5.1,0,0,0-.36-1.24,2.06,2.06,0,0,0-.17.29c-.23,0-.8-.58-.8-.58A8.51,8.51,0,0,1,114.27,190.72Z"/>
              <path class="cls-22" d="M115.08,190a3.8,3.8,0,0,1,.07.68c0,.2.07.82.46.82s.08-.79,0-1a6.51,6.51,0,0,1,0-.78Z"/>
              <path class="cls-24" d="M115.61,190v-.29l-.53.26s0,.1,0,.22A.45.45,0,0,0,115.61,190Z"/>
              <path class="cls-22" d="M114.88,188.59a.66.66,0,0,0-.28.37.93.93,0,0,0,.54,1.07c.53.16.76-.36.65-.77S115.44,188.34,114.88,188.59Z"/>
              <path class="cls-22" d="M115.85,189.1c0,.11-.06.2-.13.19s-.1-.1-.09-.21.07-.19.13-.19S115.86,189,115.85,189.1Z"/>
              <path class="cls-22" d="M114.76,189.53c.06.09.06.21,0,.25s-.16,0-.22-.1a.19.19,0,0,1,0-.25C114.59,189.39,114.69,189.43,114.76,189.53Z"/>
              <path class="cls-24" d="M115.44,188.38s-.46,1.08-.83,1-.09-.65-.09-.67.22-.33.28-.33l.42,0Z"/>
            </g>
          </g>
          <g>
            <g>
              <path class="cls-5" d="M34.53,181.66a82.27,82.27,0,0,1-2.89-8.53,58.36,58.36,0,0,1-1.7-18.66c0-.42-.65-.53-.71-.1a35.15,35.15,0,0,0-.25,4.47,56.34,56.34,0,0,0,.45,7.55A5,5,0,0,1,24.74,165c-2.3-2.09-3.12-4.87-3.48-7.95,0-.32-.05-.62-.31-.8a.18.18,0,0,0-.35,0c-.37.38-.19,1.13-.13,1.62.76,6.56,4.74,9.75,8,9.72a4.74,4.74,0,0,0,1.16-.13c.23,1.57.53,3.13.89,4.68a69.69,69.69,0,0,0,2.73,8.59c3.66,9.61,4.83,14.52,5.87,17.3a.44.44,0,1,0,.84-.24C39.85,197.57,37,188.1,34.53,181.66Z"/>
              <path class="cls-5" d="M49.18,156.38a4.81,4.81,0,0,0-.2-.53.27.27,0,0,0-.52,0,3.52,3.52,0,0,1-.15.42,59.1,59.1,0,0,1-.54,8.1A20.72,20.72,0,0,1,47,168a12.45,12.45,0,0,1-3.33,5.18,76.75,76.75,0,0,0-.52-8c-.2-1.6-.44-3.19-.73-4.76-.15-.77-.3-1.54-.47-2.3a8.6,8.6,0,0,0-.72-2.29.24.24,0,0,0-.45.12A9.56,9.56,0,0,0,41,158c.14.69.28,1.38.41,2.07a78,78,0,0,1,1.31,14.81,31.19,31.19,0,0,1-6.35-15.53c-.09-.86-.15-1.72-.17-2.58l0-1.33c0-.23-.09-.92-.47-.72s-.33.6-.36,1,0,.79,0,1.18c0,.76,0,1.52.13,2.28a32,32,0,0,0,5.71,15.35,15.83,15.83,0,0,0,1.55,2c-.13,8.78-1.43,19.87-1.45,20.75a2.88,2.88,0,0,0,.06.59c.06.4.58.31.69,0,.2-.58.18-.8.48-4,.54-5.71,1.14-18.79,1.14-19.33a12.53,12.53,0,0,0,4.05-5.56,17.06,17.06,0,0,0,.92-3.54A41.41,41.41,0,0,0,49.18,156.38Z"/>
            </g>
            <path class="cls-6" d="M36.37,149.22a17.59,17.59,0,0,0,.11-1.94c0-7.34-4.56-13.29-10.17-13.29s-10.17,5.95-10.17,13.29a17.59,17.59,0,0,0,.11,1.94Z"/>
            <path class="cls-7" d="M47.87,146c.08-.89.11-1.8.11-2.73,0-10.35-4.55-18.74-10.16-18.74s-10.17,8.39-10.17,18.74c0,.93,0,1.84.11,2.73Z"/>
            <path class="cls-6" d="M27.88,157.44a27.28,27.28,0,0,1-.13-2.73c0-10.36,5.77-18.75,12.88-18.75s12.89,8.39,12.89,18.75a27.26,27.26,0,0,1-.14,2.73Z"/>
            <path class="cls-7" d="M37.78,136c-3.56,0-6.74,2.66-8.84,6.84a10,10,0,0,0-3.37-.59c-6.32,0-11.44,5.95-11.44,13.29a15.43,15.43,0,0,0,.12,1.94H49.09c.08-.89.12-1.81.12-2.73C49.21,144.35,44.09,136,37.78,136Z"/>
          </g>
          <g>
            <path class="cls-7" d="M29.23,193.54a7.08,7.08,0,0,1-.09-1.13c0-4.28,4-7.75,9-7.75s9,3.47,9,7.75a7.08,7.08,0,0,1-.09,1.13Z"/>
            <path class="cls-9" d="M19.09,191.63A13.86,13.86,0,0,1,19,190c0-6,4-10.93,9-10.93s9,4.89,9,10.93a11.91,11.91,0,0,1-.1,1.59Z"/>
            <path class="cls-9" d="M22.37,198.33a6,6,0,0,0,.1-1.13c0-4.28-4-7.75-9-7.75s-9,3.47-9,7.75a7,7,0,0,0,.09,1.13Z"/>
            <path class="cls-7" d="M36.71,198.33a10.44,10.44,0,0,0,.12-1.59,11.14,11.14,0,0,0-11.35-10.93,11.15,11.15,0,0,0-11.36,10.93,10.44,10.44,0,0,0,.12,1.59Z"/>
            <path class="cls-9" d="M28,185.81a9.77,9.77,0,0,1,7.79,4,12.54,12.54,0,0,1,3-.35c5.56,0,10.08,3.47,10.08,7.75a6,6,0,0,1-.11,1.13H18a11.9,11.9,0,0,1-.11-1.59C17.91,190.7,22.43,185.81,28,185.81Z"/>
          </g>
          <g>
            <rect class="cls-8" x="343.78" y="181.2" width="0.9" height="15.75"/>
            <polygon class="cls-7" points="344.47 153.11 340.04 184.91 348.9 184.91 344.47 153.11"/>
            <polygon class="cls-9" points="340.32 182.89 348.27 180.38 348.15 179.52 340.45 181.95 340.32 182.89"/>
            <polygon class="cls-9" points="341.72 172.84 346.99 171.18 346.87 170.32 341.85 171.9 341.72 172.84"/>
          </g>
          <g>
            <rect class="cls-8" x="336.17" y="182.32" width="0.76" height="8.46"/>
            <polygon class="cls-7" points="336.55 165.9 334.06 186.04 339.05 186.04 336.55 165.9"/>
            <polygon class="cls-9" points="334.96 178.74 338.52 181.78 338.38 180.68 335.08 177.84 334.96 178.74"/>
            <polygon class="cls-9" points="335.51 174.32 337.69 175.07 337.58 174.24 335.61 173.56 335.51 174.32"/>
          </g>
          <g>
            <path class="cls-7" d="M323.82,193.54a7.08,7.08,0,0,0,.1-1.13c0-4.28-4-7.75-9-7.75s-9,3.47-9,7.75a7.08,7.08,0,0,0,.1,1.13Z"/>
            <path class="cls-9" d="M334,191.63a13.85,13.85,0,0,0,.1-1.59c0-6-4-10.93-9-10.93s-9,4.89-9,10.93a13.85,13.85,0,0,0,.1,1.59Z"/>
            <path class="cls-9" d="M330.68,198.33a7,7,0,0,1-.09-1.13c0-4.28,4-7.75,9-7.75s9,3.47,9,7.75a7,7,0,0,1-.1,1.13Z"/>
            <path class="cls-7" d="M316.34,198.33a10.44,10.44,0,0,1-.12-1.59,11.37,11.37,0,0,1,22.72,0,10.44,10.44,0,0,1-.12,1.59Z"/>
            <path class="cls-9" d="M325.06,185.81a9.77,9.77,0,0,0-7.78,4,12.6,12.6,0,0,0-3-.35c-5.57,0-10.08,3.47-10.08,7.75a6,6,0,0,0,.11,1.13H335a11.9,11.9,0,0,0,.11-1.59C335.14,190.7,330.63,185.81,325.06,185.81Z"/>
          </g>
          <g>
            <g>
              <path class="cls-22" d="M264.75,200.7a5.46,5.46,0,0,1,0,.87.26.26,0,0,1,0,.11,1.31,1.31,0,0,0,.08.48h1.5c.08,0,0,0,0-.1a2.86,2.86,0,0,0-.55-.29l-.13-.08a1,1,0,0,1-.22-.19,1.88,1.88,0,0,1-.12-.7Z"/>
              <path class="cls-10" d="M265.6,201.7a1.39,1.39,0,0,1-.86,0,1.41,1.41,0,0,0-.07.52c.38,0,.7.08,1.78.06,0,0,0-.13,0-.16A6.43,6.43,0,0,0,265.6,201.7Z"/>
              <path class="cls-22" d="M266.45,199.6a6.39,6.39,0,0,1,.39.79s0,.07,0,.11.27.41.27.41l1.37-.62c.07,0,0,0-.08-.07a4.29,4.29,0,0,0-.61,0h-.16a1.47,1.47,0,0,1-.28-.08c-.14-.07-.4-.59-.4-.59Z"/>
              <path class="cls-25" d="M261.32,188.72a1.18,1.18,0,0,0-1-.57c-1.29,0-1.45,1.66-2.28,2.3-.24.2-.52.35-.75.56a.91.91,0,0,0,.06.4,1.65,1.65,0,0,0,.2.37l.35-.2-.15.44a4.68,4.68,0,0,0,1.12.78,4,4,0,0,0,1.77.46,12.61,12.61,0,0,0,.56-1.44,6,6,0,0,0,.42-1.76A2.84,2.84,0,0,0,261.32,188.72Z"/>
              <path class="cls-10" d="M267.64,200.17a1.36,1.36,0,0,1-.79.33c0,.13.11.53.16.51.34-.16.66-.22,1.63-.69,0,0,0-.13-.06-.15A7.35,7.35,0,0,0,267.64,200.17Z"/>
              <path class="cls-22" d="M263.67,196.5c-.1,0-.32-.18-.4-.19l-.26,0c-.07-.27-.42-1.69-.46-2.11s-.37-2.42-.37-2.42l-.83.16s.35,1.5.44,2.24a11.16,11.16,0,0,0,.86,2.19h0c0,.22.12.14.12.14l.18.05.65.07S263.76,196.51,263.67,196.5Z"/>
              <path class="cls-29" d="M261.54,190.71c.59.2.84,1.68.84,1.68s-.92.26-1.16.12c0,0-.26-1.18-.36-1.14Z"/>
              <path class="cls-29" d="M260.9,190.59H261a1.43,1.43,0,0,1,.58.13c.23.09.37.93.34,1.84,0,.14-.11,2.29-.12,2.3a4.26,4.26,0,0,1-2,.11c-.11-.15-.2-2.7-.25-2.79l-.11-1.55A11.76,11.76,0,0,1,260.9,190.59Z"/>
              <path class="cls-22" d="M260.25,190a4.32,4.32,0,0,1,.08.75c0,.22.08.9.53.91s.09-.88,0-1.09a8.46,8.46,0,0,1,0-.85Z"/>
              <path class="cls-39" d="M260.86,190.06c0-.18,0-.32,0-.32l-.6.28s0,.11,0,.25A.52.52,0,0,0,260.86,190.06Z"/>
              <path class="cls-22" d="M260,188.53a.73.73,0,0,0-.31.41,1,1,0,0,0,.61,1.18c.6.17.86-.4.74-.85S260.67,188.25,260,188.53Z"/>
              <path class="cls-22" d="M261.14,189.1c0,.12-.08.21-.15.2s-.12-.11-.11-.23.08-.21.15-.2S261.15,189,261.14,189.1Z"/>
              <path class="cls-25" d="M260.1,188.49s-.11.81-.37.95-.16.51-.16.51-.23-.83,0-1.1A1.16,1.16,0,0,1,260.1,188.49Z"/>
              <path class="cls-22" d="M259.88,189.56a.21.21,0,0,1,0,.28.21.21,0,0,1-.26-.11c-.07-.1-.07-.23,0-.27S259.81,189.45,259.88,189.56Z"/>
              <path class="cls-26" d="M260.76,189.6l-.43.11a.19.19,0,0,0,.24.12C260.8,189.78,260.76,189.6,260.76,189.6Z"/>
              <path class="cls-22" d="M257,196.54s0,0,0,0l.5-.06.08,0a.22.22,0,0,1,.14,0h.07c.09,0,.33-.09.45-.12a.09.09,0,0,0,.06-.06c.1-.48.33-1.57.35-1.93s.28-2.51.28-2.51l.85.21s-.3,1.52-.37,2.26a10.36,10.36,0,0,1-.75,2.13.35.35,0,0,1-.32.28l-.07,0a.47.47,0,0,1-.1.1.23.23,0,0,0-.07.07l-.09.17a.07.07,0,0,1-.08,0s-.05,0-.05-.08a.3.3,0,0,1,.05-.16.1.1,0,0,0,0-.12l-.07-.07a.11.11,0,0,0-.08,0l-.19,0h-.07l-.13,0h-.19a.11.11,0,0,1-.08,0s0,0,0,0l0,0,.12,0h-.16a.16.16,0,0,1-.11,0S257,196.56,257,196.54Z"/>
              <path class="cls-29" d="M259.44,190.61c-.41-.07-.79,1.78-.79,1.78s.92.26,1.16.12c0,0,.27-1.18.36-1.14Z"/>
              <path class="cls-10" d="M261.78,194.7V195l3.19.67.79,2.38-.44-.3.1,3.65h-.67s-1.16-3.07-.78-4.61l-3.53,0a1.69,1.69,0,0,1-.77-2.47Z"/>
              <path class="cls-24" d="M261.78,195a25.21,25.21,0,0,1,3.54.21c.23.18,2,4.67,2,4.67l-.77.28s-1.53-2.54-1.61-2.72a7.59,7.59,0,0,0-.9-1.65C263.81,195.68,261.78,195,261.78,195Z"/>
            </g>
            <path class="cls-28" d="M255.62,193.71c-.29-.11-2.73-1-2.83-1.11s-1.37-1.61-1.37-1.61l.89-.35,1.14,1.46,1.67.9.46.25.13,0a1,1,0,0,0,.22-.06,1,1,0,0,1,.28-.08h.44c.05,0,.08,0,.06.07a.2.2,0,0,1-.12.06,2.57,2.57,0,0,1-.27,0s.27.14.3.16a2.35,2.35,0,0,1,.38.2c.05,0,0,.09,0,.09s-.47-.17-.47-.17,0,0,0,0,.4.18.46.22.07.08,0,.1a2.07,2.07,0,0,1-.48-.16s-.05,0-.06,0a2.56,2.56,0,0,0,.37.17.05.05,0,0,1,0,.09,2.3,2.3,0,0,1-.43-.16s0,0,0,0a3.4,3.4,0,0,1,.3.18s0,0,0,0-.3-.11-.44-.15A4.43,4.43,0,0,1,255.62,193.71Z"/>
            <path class="cls-23" d="M252.29,190s.22.05.6.69.65,1.27.65,1.27l-.62.65s-.46-1.41-.5-1.45S252.29,190,252.29,190Z"/>
            <path class="cls-28" d="M254.39,201.21l0,.56a2.06,2.06,0,0,0-.07.32c0,.24,1.15-.21.89-.32,0,0-.14-.08-.15-.16s0-.39,0-.39Z"/>
            <path class="cls-28" d="M256.33,201.21l0,.56a2.06,2.06,0,0,0-.07.32c0,.24,1.15-.21.89-.32,0,0-.2,0-.2-.12l0-.52Z"/>
            <path class="cls-25" d="M252.62,195.33l2.73,0s1.23,0,1.43.39.21,5.54.21,5.54a3.86,3.86,0,0,1-.68,0l-.82-2.85a2.44,2.44,0,0,1-.08-.85l.07-.76-1.12.05s-1.28,0-1.7-.45S252.62,195.33,252.62,195.33Z"/>
            <path class="cls-8" d="M250.77,195l2.93.18s1.27.1,1.46.54a49.69,49.69,0,0,1-.06,5.53,4.57,4.57,0,0,1-.74,0s-.36-2.1-.52-2.89a2.76,2.76,0,0,1-.06-.76l.08-.83a26.54,26.54,0,0,1-3.25-.17C250.18,196.21,250.77,195,250.77,195Z"/>
            <path class="cls-12" d="M252.29,190a8.45,8.45,0,0,0-1.18.06,3.5,3.5,0,0,0-.64.09c-.21.1-.63.21-.46,1.21.12.71.39,3,.56,4.23l3-.33C252.93,192.85,252.7,190,252.29,190Z"/>
            <path class="cls-28" d="M251.32,189.09l-.27.93s.46.54.79.48.14-.43.14-.43a2.56,2.56,0,0,1,0-.79C252.07,189,251.32,189.09,251.32,189.09Z"/>
            <path class="cls-30" d="M251.43,189.41a1.63,1.63,0,0,0,.53.25,1.13,1.13,0,0,1,0-.38c0-.12-.1-.17-.26-.19h-.41l0,.18A.52.52,0,0,0,251.43,189.41Z"/>
            <g>
              <path class="cls-28" d="M251.26,187.63s-.25,1.13,0,1.47.83.47,1.05.23a1.83,1.83,0,0,0-.12-1.84C251.77,187.13,251.26,187.63,251.26,187.63Z"/>
              <path class="cls-25" d="M252.07,186.86a1.24,1.24,0,0,0-.68.34.83.83,0,0,0-.63.44.94.94,0,0,0,.18,1.23.73.73,0,0,1,.28.55l.06-.14a1,1,0,0,0,.06-.35,1.3,1.3,0,0,0,0-.21c-.07-.17.18-.27.26-.4s.07-.35.17-.52l.1-.13a.65.65,0,0,1,.46-.1C252.51,187.64,252.53,186.8,252.07,186.86Z"/>
              <path class="cls-28" d="M251.53,188.52c0,.14-.08.25-.16.25s-.14-.12-.13-.26.08-.25.16-.25S251.54,188.38,251.53,188.52Z"/>
            </g>
            <path class="cls-28" d="M249.66,191.91l.8.24s-.15.7-.15.78,1.36.73,1.93,1l0,.5-.25-.1-1.85-.57s-.69-.25-.71-.38S249.66,191.91,249.66,191.91Z"/>
            <path class="cls-23" d="M249.43,192.37a15.87,15.87,0,0,1,.59-2,.59.59,0,0,1,.95-.18c.29.27-.54,2.35-.54,2.35Z"/>
            <path class="cls-20" d="M255.18,201.72s-.27.07-.41.09-.32-.14-.41-.09-.11.46-.11.46a9.27,9.27,0,0,0,1.85,0C256.26,202.13,255.73,201.89,255.18,201.72Z"/>
            <path class="cls-20" d="M257.12,201.72s-.27.07-.41.09-.32-.14-.41-.09-.11.46-.11.46a9.27,9.27,0,0,0,1.85,0C258.2,202.13,257.67,201.89,257.12,201.72Z"/>
            <path class="cls-26" d="M251.9,188.91h.39a.18.18,0,0,1-.18.16C251.9,189.07,251.9,188.91,251.9,188.91Z"/>
            <g>
              <path class="cls-20" d="M253.24,193c0,.09,0,.16.09.17a.15.15,0,0,0,.13-.14c0-.08,0-.16-.09-.17S253.26,193,253.24,193Zm.18,0s0,0-.06,0-.06,0-.06-.05,0,0,.07,0A0,0,0,0,1,253.42,193Zm-.15.1s0-.05.08-.05.08,0,.08.07a.08.08,0,0,1-.09,0C253.29,193.14,253.26,193.12,253.27,193.09Z"/>
              <path class="cls-40" d="M253.57,193.27a.43.43,0,0,1,0,.16l-.14,1.11a.12.12,0,0,1-.14.1l-.64-.08a.12.12,0,0,1-.1-.14l.14-1.11a.47.47,0,0,1,.06-.15Z"/>
              <path class="cls-40" d="M253.57,193.27a.43.43,0,0,1,0,.16l-.14,1.11a.12.12,0,0,1-.14.1l-.64-.08a.12.12,0,0,1-.1-.14l.14-1.11a.47.47,0,0,1,.06-.15Z"/>
              <path class="cls-9" d="M252.7,193.31l-.14,1.11a.12.12,0,0,0,.1.14l.64.08a.12.12,0,0,0,.14-.1l.14-1.11a.43.43,0,0,0,0-.16l-.81-.11A.47.47,0,0,0,252.7,193.31Z"/>
              <path class="cls-29" d="M253.27,194.52l.14-1.11a.29.29,0,0,0,0-.16l.17,0a.43.43,0,0,1,0,.16l-.14,1.11a.12.12,0,0,1-.14.1l-.17,0A.12.12,0,0,0,253.27,194.52Z"/>
              <path class="cls-7" d="M252.7,193.31l-.14,1.11a.12.12,0,0,0,.1.14l.26,0a.11.11,0,0,1-.1-.13l.14-1.11a.53.53,0,0,1,0-.15l-.25,0A.47.47,0,0,0,252.7,193.31Z"/>
              <path class="cls-20" d="M252.76,193.16l.81.11h0s0-.07-.06-.07l-.68-.09a.05.05,0,0,0-.07,0Z"/>
              <rect class="cls-20" x="252.95" y="193.89" width="0.14" height="0.89" transform="translate(27.7 420.19) rotate(-82.59)"/>
            </g>
            <path class="cls-28" d="M252.24,193.89a2.11,2.11,0,0,1,.31-.26.57.57,0,0,1,.19,0s.15,0,.16,0a.08.08,0,0,1,0,.08s-.09,0-.11,0-.06.1-.06.13.43,0,.43,0l.16,0,.14,0s.15,0,.15,0-.11.1-.24.14-.29.08-.28.1.24,0,.24,0a.45.45,0,0,1,.16,0c.06,0,.18-.06.19,0l-.16.09-.15,0c-.09,0-.22,0-.29,0s0,0,0,0h.32l.17,0c.12,0,.1.07,0,.1l-.14,0c-.19,0-.36,0-.37.06a1.71,1.71,0,0,0,.32,0s.18.05,0,.09a1.5,1.5,0,0,1-.36,0,1,1,0,0,1-.37,0l-.36-.1Z"/>
            <path class="cls-7" d="M252.67,193.52l0,.33a1.64,1.64,0,0,0,.26,0l0-.17,0-.13-.06-.08Z"/>
          </g>
          <g>
            <path class="cls-27" d="M90.74,192.3l.34,1-.87.23s-.21-1-.21-1Z"/>
            <path class="cls-27" d="M91.78,200.34a8.74,8.74,0,0,0-.63.84,2.85,2.85,0,0,0,.1.86c.07.07.29.11.22.19a2.16,2.16,0,0,1-.73,0c-.08,0-.18-.65-.21-.75a1.33,1.33,0,0,1-.12-.54.81.81,0,0,1,.25-.24,6.8,6.8,0,0,0,.7-.87Z"/>
            <path class="cls-9" d="M90.67,200.73a5.45,5.45,0,0,0,.59,1.27s.25.06.29.15,0,.13,0,.13h-.87s-.12-.54-.16-.77a4.22,4.22,0,0,1-.21-.63A1.46,1.46,0,0,1,90.67,200.73Z"/>
            <path class="cls-22" d="M95.54,200.71s.51.74.47,1-.14.29-.07.41a.31.31,0,0,0,.13.14l1.6,0c.08,0,0-.06,0-.11a3.19,3.19,0,0,0-.58-.32l-.14-.09a1.12,1.12,0,0,1-.23-.21c-.11-.13-.62-1.19-.62-1.19Z"/>
            <path class="cls-33" d="M93.69,196.16s-.64.74-.8.86-1.72,3-1.72,3l.56.41s1.39-1.77,2-2.72a12.79,12.79,0,0,0,.67-1.23.66.66,0,0,0-.1-.85l-.09-.09c-.48-.4-3.77-.86-3.77-.86l-2.11.21s1.72,1.23,1.79,1.26,2.37.38,2.42.38S93.69,196.16,93.69,196.16Z"/>
            <path class="cls-24" d="M88.16,195s-.36,1.1.18,1.62,3.76.46,4.82.46c0,0,.43,1.21.48,1.41s2.15,2.74,2.15,2.74l.57-.38s-2.26-4.49-2.43-4.69A25,25,0,0,0,90.61,195,10.74,10.74,0,0,0,88.16,195Z"/>
            <path class="cls-25" d="M90.56,191.35c-.39-1.22-.83-1.17-.83-1.17l.34,2.57c.24-.07.56-.22.8-.29A10.16,10.16,0,0,0,90.56,191.35Z"/>
            <path class="cls-8" d="M88.72,190s-.73-.05-1,.27.64,2.86.69,3.27a5.69,5.69,0,0,1-.26,1.49s1.7.36,2.19,0c0,0,.05-2.94,0-3.23a8.86,8.86,0,0,0-.59-1.6A4.19,4.19,0,0,0,88.72,190Z"/>
            <path class="cls-7" d="M93.16,191.51H90.82a.16.16,0,0,0-.14.11l-1,3.18a.07.07,0,0,0,.07.1H92.1a.14.14,0,0,0,.14-.1l1-3.18C93.25,191.56,93.22,191.51,93.16,191.51Z"/>
            <path class="cls-26" d="M91.79,192.53a.17.17,0,0,0,.09.21.16.16,0,0,0,.18-.14.15.15,0,0,0-.09-.2C91.9,192.38,91.82,192.44,91.79,192.53Z"/>
            <path class="cls-9" d="M97,201.78a1.64,1.64,0,0,1-1,0,.84.84,0,0,0-.08.44c0,.14.1.17.16.17l2,0s.08-.06,0-.09A9.82,9.82,0,0,0,97,201.78Z"/>
            <path class="cls-21" d="M90,193.59a1.14,1.14,0,0,1,.25-.25.44.44,0,0,1,.17-.07s.13,0,.14,0a.06.06,0,0,1,0,.08s-.07,0-.09,0,0,.09,0,.12a1.72,1.72,0,0,0,.39,0l.14,0,.12-.05s.13,0,.14,0-.1.1-.21.15a1.46,1.46,0,0,0-.24.1s.21,0,.21,0a.62.62,0,0,1,.14,0c.06,0,.16-.06.17,0l-.13.09-.13,0a2,2,0,0,1-.25.07s0,0,0,0l.14,0a.58.58,0,0,0,.14,0l.15,0c.11,0,.1.06,0,.09l-.12,0a3.23,3.23,0,0,0-.32.08,1.31,1.31,0,0,0,.28,0s.16,0,0,.07a1.54,1.54,0,0,1-.32.06,1.05,1.05,0,0,1-.33,0L90,194Z"/>
            <path class="cls-22" d="M87.52,192l.73.16s-.08.63-.08.7,1.27.54,1.8.7l0,.44-.24-.07-1.69-.36s-.63-.16-.66-.28S87.52,192,87.52,192Z"/>
            <path class="cls-25" d="M87.29,192.67a11.22,11.22,0,0,1,.14-2.13c.16-.41.76-.68,1.07-.44s-.18,2.57-.18,2.57Z"/>
            <path class="cls-6" d="M90.57,188.44c0-.81-.63-1.49-1.42-1.21a1.84,1.84,0,0,0-.57.34c-.36.36-.51.85-.89,1.2a4.75,4.75,0,0,0,.39.34l.24-.24-.12.33a5.07,5.07,0,0,0,2.09.75A4.42,4.42,0,0,0,90.57,188.44Z"/>
            <path class="cls-22" d="M89,189V189a5.89,5.89,0,0,1-.24.94c-.1.2.35.82.78.75.13,0-.11-.58-.1-.64l.08-.42.06-.27.08-.43Z"/>
            <path class="cls-24" d="M89,189V189h.65l-.08.43,0,.27a.62.62,0,0,1-.31-.16.91.91,0,0,1-.24-.36Z"/>
            <path class="cls-22" d="M89.64,187.58a.59.59,0,0,0-.53.14,1.21,1.21,0,0,0-.12,1.47c.41.49.94.08,1.08-.42S90.33,187.66,89.64,187.58Z"/>
            <path class="cls-22" d="M90.21,188.79c-.07.1-.17.15-.23.1s0-.16,0-.27.18-.15.23-.1S90.29,188.68,90.21,188.79Z"/>
            <path class="cls-6" d="M89.68,187.5s-.51.68-.8.67-.39.38-.39.38.23-.89.54-1A1.08,1.08,0,0,1,89.68,187.5Z"/>
            <path class="cls-22" d="M88.93,188.37c0,.14-.06.25-.14.26s-.16-.1-.17-.24.06-.25.15-.25S88.92,188.24,88.93,188.37Z"/>
            <path class="cls-26" d="M89.58,189.05l-.37-.13a.18.18,0,0,0,.12.21A.17.17,0,0,0,89.58,189.05Z"/>
            <path class="cls-22" d="M92.49,193.33l.06.48h0a.55.55,0,0,0,.2-.17l.37-.46-.07-.4a1.29,1.29,0,0,0-.33-.1s.14.15.14.15-.15-.06-.16,0,.11.14.11.14Z"/>
            <path class="cls-7" d="M92.81,192.94s-.29.94-.29.94l-.26-.47a4.1,4.1,0,0,1,.29-.4Z"/>
          </g>
          <g>
            <path class="cls-27" d="M121.76,192.69c0-.05.21-.17.21-.23s-.34,0-.36,0,.37-.12.35-.16-.45,0-.42-.1.44,0,.44,0-.4-.07-.42-.18.68.12.74.07-.15-.28-.1-.33.35.47.39.48a9.52,9.52,0,0,0,1.29.25c0-.11.19-.64.19-.74.2.07.33,0,.53.05a5.49,5.49,0,0,1-.35,1.27c-.23.19-1.43-.37-1.67-.46a1,1,0,0,0-.48,0C122,192.56,121.79,192.73,121.76,192.69Z"/>
            <path class="cls-29" d="M124.64,190.67c-.3.11-.63,1.07-.64,1.13a5.14,5.14,0,0,0-.11.57h0a.34.34,0,0,0,0,.09,8.38,8.38,0,0,1-1.28-.29l-.12.42s1.54.64,1.77.45a2.82,2.82,0,0,0,.21-.63,1,1,0,0,0,.46-.06s.26-1.15.36-1.11Z"/>
            <path class="cls-9" d="M124.92,189.4s-.21-.24,0-1a1,1,0,0,1,1.62-.28,1.57,1.57,0,0,1,.32,1.63,1.39,1.39,0,0,1-.7.52Z"/>
            <path class="cls-22" d="M121.5,200.29a5.19,5.19,0,0,0,0,.85.93.93,0,0,0,0,.1,1.28,1.28,0,0,1-.07.47H120c-.08,0,0-.05,0-.1a3.9,3.9,0,0,1,.53-.28l.13-.08a.88.88,0,0,0,.21-.18c.11-.11.12-.68.12-.68Z"/>
            <path class="cls-22" d="M119.85,199.23a4.9,4.9,0,0,0-.37.76s0,.07,0,.11-.26.4-.26.4l-1.32-.6c-.08,0,0-.06.07-.07a2.41,2.41,0,0,1,.6,0l.15,0a1.54,1.54,0,0,0,.27-.07c.14-.06.39-.57.39-.57Z"/>
            <path class="cls-9" d="M118.7,199.77a1.3,1.3,0,0,0,.76.33c0,.12-.1.51-.14.49-.34-.15-.65-.22-1.59-.67,0,0,0-.13,0-.14A7.18,7.18,0,0,1,118.7,199.77Z"/>
            <path class="cls-35" d="M124.38,194.47v.32l-3.09.65-.76,2.31.42-.29-.1,3.54h.65s1.13-3,.76-4.47l3.42.05a1.65,1.65,0,0,0,.75-2.41Z"/>
            <path class="cls-37" d="M124.38,194.79a25.13,25.13,0,0,0-3.43.2c-.23.18-1.94,4.53-1.94,4.53l.75.28s1.48-2.47,1.56-2.65a7.74,7.74,0,0,1,.87-1.59C122.41,195.43,124.38,194.79,124.38,194.79Z"/>
            <path class="cls-9" d="M126.83,195.19a11,11,0,0,1-.3-1.57h0c.08-.59.15-1.2.18-1.25l-.07-1.4s0-.28-.11-.3a8.62,8.62,0,0,0-1.29-.18h0a5,5,0,0,0-.64.2c-.22.09-.34.81-.32,1.7,0,.1.07,1.28.1,1.88,0,.12-3.2.59-3.37.69a.45.45,0,0,0-.2.26c.66-.24,1.67,2.38,1.67,2.38s3.21-.87,3.63-1A1.23,1.23,0,0,0,126.83,195.19Z"/>
            <path class="cls-22" d="M125.55,193.45l-.15-.35h-.32a3.79,3.79,0,0,0-.38-.21s-.12,0-.13,0a.06.06,0,0,0,0,.07.15.15,0,0,1,.07,0s.09,0,.09.07-.36,0-.36,0l-.14,0-.11,0s-.14,0-.15,0,.47.14.47.16-.2,0-.2,0l-.14,0c-.05,0-.16,0-.16,0l.14,0,.13,0c.07,0,.18,0,.23,0s0,0,0,0h-.4c-.1,0-.08.07,0,.08l.12,0a1.75,1.75,0,0,1,.3,0s-.26,0-.26,0-.14,0,0,.06a.78.78,0,0,0,.29,0,1.1,1.1,0,0,0,.31,0C125,193.53,125.53,193.45,125.55,193.45Z"/>
            <path class="cls-9" d="M120.68,201.21a1.3,1.3,0,0,0,.83,0c0,.12.11.51.07.51-.37,0-.67.07-1.72.06,0,0,0-.13,0-.16A7.5,7.5,0,0,1,120.68,201.21Z"/>
            <path class="cls-29" d="M126.16,189.58a2.33,2.33,0,0,0,.15,1s-1,.78-1.36-.06a4.17,4.17,0,0,0,.26-1C125.33,188.87,126.16,189.58,126.16,189.58Z"/>
            <path class="cls-22" d="M125.65,188.4a.76.76,0,0,1,.42.28,1,1,0,0,1-.21,1.27c-.5.35-.91-.1-.94-.55S125,188.34,125.65,188.4Z"/>
            <path class="cls-26" d="M125.21,189.65l.4,0a.18.18,0,0,1-.2.14C125.2,189.82,125.21,189.65,125.21,189.65Z"/>
            <path class="cls-26" d="M124.94,189s.25-.48.63-.44.64.55.64.55a.69.69,0,0,0-.6-.68A.61.61,0,0,0,124.94,189Z"/>
            <path class="cls-29" d="M127.51,192.52c-.06-.27-.48-1.86-1-1.85,0,0-.5,0-.31.71l.61,1.36a8.24,8.24,0,0,1-1.59.3l.11.49s1.91,0,2.2-.43A.71.71,0,0,0,127.51,192.52Z"/>
            <path class="cls-41" d="M124.38,194.27a4.89,4.89,0,0,1,1.85.25,3.49,3.49,0,0,0-1.87-.57Z"/>
          </g>
        </g>
      </g>
    </g>
  </g>
</svg>
